<svg width="145" height="148" viewBox="0 0 145 148" fill="none" xmlns="http://www.w3.org/2000/svg">
<path d="M105.982 113.516C105.982 113.516 122.986 112.457 134.688 91.5462C146.391 70.6356 144.28 38.7379 129.727 21.0188C115.173 3.2998 92.514 -2.73008 70.8971 2.94228C60.3634 5.70652 53.3394 12.87 47.2703 21.5072C41.9816 29.0325 36.0346 36.2876 28.0296 41.0487C20.1075 45.7662 11.9587 49.5245 7.97363 58.4887C-1.76661 80.2887 5.35763 105.673 28.3828 114.227C53.1999 123.44 94.6417 118.478 105.982 113.516Z" fill="#D2E558"/>
<path opacity="0.7" d="M105.982 113.516C105.982 113.516 122.986 112.457 134.688 91.5462C146.391 70.6356 144.28 38.7379 129.727 21.0188C115.173 3.2998 92.514 -2.73008 70.8971 2.94228C60.3634 5.70652 53.3394 12.87 47.2703 21.5072C41.9816 29.0325 36.0346 36.2876 28.0296 41.0487C20.1075 45.7662 11.9587 49.5245 7.97363 58.4887C-1.76661 80.2887 5.35763 105.673 28.3828 114.227C53.1999 123.44 94.6417 118.478 105.982 113.516Z" fill="white"/>
<path d="M22.9676 39.732H124.913C125.655 39.732 126.367 40.0269 126.892 40.5518C127.417 41.0767 127.712 41.7887 127.712 42.5311V113.425H20.1685V42.5354C20.1679 42.1675 20.2399 41.803 20.3803 41.4629C20.5207 41.1228 20.7268 40.8137 20.9868 40.5533C21.2467 40.293 21.5555 40.0864 21.8954 39.9455C22.2353 39.8045 22.5996 39.732 22.9676 39.732Z" fill="#263238"/>
<path d="M127.935 113.643H19.9504V42.5355C19.9504 41.7349 20.2682 40.967 20.8339 40.4005C21.3996 39.834 22.167 39.5151 22.9676 39.514H124.913C125.714 39.5151 126.482 39.8338 127.048 40.4002C127.615 40.9666 127.933 41.7345 127.935 42.5355V113.643ZM20.3864 113.207H127.499V42.5355C127.497 41.8501 127.225 41.1931 126.74 40.7085C126.255 40.2239 125.598 39.9511 124.913 39.95H22.9676C22.2826 39.9511 21.6261 40.224 21.1422 40.7088C20.6582 41.1935 20.3864 41.8505 20.3864 42.5355V113.207Z" fill="#263238"/>
<path d="M140.648 147.215H7.23232C5.75863 147.215 4.51603 145.1 5.17003 143.779L20.1684 114.641H127.717L142.793 143.679C143.452 144.995 142.144 147.215 140.648 147.215Z" fill="#263238"/>
<path d="M140.648 147.433H7.2324C6.8191 147.407 6.41927 147.276 6.07065 147.052C5.72203 146.829 5.43611 146.52 5.23988 146.155C4.99251 145.798 4.83788 145.385 4.78993 144.954C4.74197 144.522 4.80221 144.086 4.9652 143.683L20.0246 114.423H127.847L127.908 114.536L142.985 143.578C143.147 143.99 143.204 144.436 143.151 144.875C143.098 145.314 142.936 145.733 142.68 146.094C142.479 146.468 142.188 146.786 141.833 147.02C141.479 147.253 141.071 147.395 140.648 147.433ZM20.3124 114.859L5.36196 143.888C5.23286 144.224 5.18879 144.586 5.23367 144.943C5.27856 145.3 5.411 145.64 5.6192 145.933C5.77786 146.232 6.00842 146.486 6.29007 146.673C6.57172 146.861 6.89558 146.975 7.2324 147.005H140.648C140.997 146.968 141.332 146.845 141.621 146.647C141.911 146.449 142.148 146.183 142.31 145.872C142.524 145.574 142.663 145.227 142.713 144.863C142.763 144.499 142.724 144.128 142.597 143.783L127.581 114.859H20.3124Z" fill="#263238"/>
<path d="M140.648 145.998H7.23241C6.89476 145.998 6.56264 145.913 6.2675 145.748C5.97236 145.584 5.72397 145.348 5.54584 145.061C5.36771 144.774 5.26574 144.447 5.24959 144.109C5.23343 143.772 5.30363 143.436 5.45353 143.134L20.1685 113.425H127.717L142.427 143.134C142.577 143.436 142.647 143.772 142.631 144.109C142.615 144.447 142.513 144.774 142.335 145.061C142.157 145.348 141.908 145.584 141.613 145.748C141.318 145.913 140.986 145.998 140.648 145.998Z" fill="white"/>
<path d="M140.649 146.216H7.23249C6.85632 146.22 6.48558 146.126 6.15563 145.946C5.82569 145.765 5.54755 145.503 5.34774 145.184C5.14792 144.865 5.03311 144.501 5.01425 144.125C4.99538 143.749 5.07309 143.375 5.23997 143.038L19.955 113.329C19.9721 113.291 19.9998 113.26 20.0347 113.238C20.0696 113.216 20.1101 113.206 20.1512 113.207H127.717C127.757 113.206 127.797 113.217 127.831 113.239C127.865 113.26 127.892 113.292 127.909 113.329L142.624 143.038C142.79 143.374 142.868 143.746 142.849 144.121C142.831 144.495 142.718 144.858 142.52 145.177C142.323 145.495 142.047 145.757 141.719 145.939C141.392 146.121 141.023 146.217 140.649 146.216ZM20.3125 113.643L5.64981 143.23C5.51621 143.499 5.45356 143.798 5.46781 144.098C5.48205 144.398 5.57272 144.69 5.73121 144.945C5.88971 145.201 6.11078 145.412 6.3735 145.558C6.63622 145.704 6.93189 145.78 7.23249 145.78H140.649C140.949 145.78 141.245 145.704 141.507 145.558C141.77 145.412 141.991 145.201 142.15 144.945C142.308 144.69 142.399 144.398 142.413 144.098C142.427 143.798 142.365 143.499 142.231 143.23L127.582 113.643H20.3125Z" fill="#263238"/>
<path d="M121.203 45.5657H26.6824V107.587H121.203V45.5657Z" fill="white"/>
<path d="M121.416 107.805H26.4644V45.352H121.416V107.805ZM26.9004 107.369H120.98V45.788H26.9004V107.369Z" fill="#263238"/>
<path d="M119.092 73.8315H29.137V105.354H119.092V73.8315Z" fill="#D2E558"/>
<path opacity="0.46" d="M40.6344 92.7888V92.004C40.6344 91.8884 40.5884 91.7775 40.5067 91.6957C40.4249 91.6139 40.314 91.568 40.1984 91.568H39.5967C39.5052 91.1682 39.3475 90.7866 39.1302 90.4388L39.5662 90.0028C39.6422 89.9219 39.6845 89.8151 39.6845 89.7041C39.6845 89.5931 39.6422 89.4863 39.5662 89.4054L39.0037 88.843C38.9227 88.7657 38.8149 88.7226 38.7029 88.7226C38.5909 88.7226 38.4831 88.7657 38.4021 88.843L37.9661 89.279C37.6171 89.0609 37.2339 88.9032 36.8325 88.8125V88.1977C36.8325 88.0821 36.7865 87.9712 36.7048 87.8894C36.623 87.8077 36.5121 87.7617 36.3965 87.7617H35.6029C35.4873 87.7617 35.3764 87.8077 35.2946 87.8894C35.2129 87.9712 35.1669 88.0821 35.1669 88.1977V88.8125C34.7672 88.904 34.3855 89.0617 34.0377 89.279L33.6017 88.843C33.5208 88.767 33.414 88.7246 33.303 88.7246C33.1921 88.7246 33.0852 88.767 33.0044 88.843L32.4637 89.388C32.3877 89.4689 32.3454 89.5757 32.3454 89.6867C32.3454 89.7977 32.3877 89.9045 32.4637 89.9853L32.8997 90.4213C32.6824 90.7691 32.5247 91.1508 32.4332 91.5506H31.8359C31.7203 91.5506 31.6094 91.5965 31.5276 91.6783C31.4458 91.76 31.3999 91.8709 31.3999 91.9866V92.7801C31.3999 92.8957 31.4458 93.0066 31.5276 93.0884C31.6094 93.1702 31.7203 93.2161 31.8359 93.2161H32.4507C32.5414 93.6175 32.6991 94.0007 32.9172 94.3497L32.4812 94.7857C32.4052 94.8665 32.3628 94.9734 32.3628 95.0843C32.3628 95.1953 32.4052 95.3021 32.4812 95.383L33.0436 95.9454C33.1245 96.0215 33.2313 96.0638 33.3423 96.0638C33.4533 96.0638 33.5601 96.0215 33.6409 95.9454L34.0769 95.5094C34.4247 95.7268 34.8064 95.8845 35.2062 95.976V96.5907C35.2062 96.7064 35.2521 96.8173 35.3339 96.899C35.4156 96.9808 35.5265 97.0267 35.6422 97.0267H36.4357C36.5513 97.0267 36.6622 96.9808 36.744 96.899C36.8258 96.8173 36.8717 96.7064 36.8717 96.5907V95.976C37.2731 95.8852 37.6563 95.7275 38.0053 95.5094L38.4413 95.9454C38.5224 96.0227 38.6301 96.0659 38.7421 96.0659C38.8542 96.0659 38.9619 96.0227 39.043 95.9454L39.6054 95.383C39.6815 95.3021 39.7238 95.1953 39.7238 95.0843C39.7238 94.9734 39.6815 94.8665 39.6054 94.7857L39.1694 94.3497C39.3875 94.0007 39.5452 93.6175 39.6359 93.2161H40.2507C40.3556 93.2034 40.4523 93.1531 40.5228 93.0745C40.5934 92.996 40.633 92.8944 40.6344 92.7888ZM36.1959 94.184C35.8235 94.2217 35.4485 94.1432 35.1225 93.9594C34.7964 93.7755 34.5352 93.4953 34.3747 93.1571C34.2142 92.819 34.1623 92.4394 34.226 92.0706C34.2898 91.7017 34.4661 91.3616 34.7308 91.0969C34.9954 90.8323 35.3355 90.6559 35.7044 90.5922C36.0733 90.5284 36.4528 90.5804 36.791 90.7409C37.1291 90.9014 37.4094 91.1626 37.5932 91.4886C37.777 91.8147 37.8555 92.1897 37.8178 92.5621C37.7757 92.9779 37.5913 93.3664 37.2958 93.662C37.0003 93.9575 36.6117 94.1419 36.1959 94.184Z" fill="white"/>
<path opacity="0.46" d="M48.1204 98.3478V97.5543C48.1204 97.4387 48.0744 97.3278 47.9927 97.246C47.9109 97.1642 47.8 97.1183 47.6844 97.1183H47.0958C47.0035 96.7167 46.8444 96.3335 46.6249 95.9847L47.0609 95.5487C47.1382 95.4676 47.1813 95.3599 47.1813 95.2479C47.1813 95.1358 47.1382 95.0281 47.0609 94.947L46.4984 94.3846C46.4174 94.3073 46.3096 94.2642 46.1976 94.2642C46.0856 94.2642 45.9779 94.3073 45.8968 94.3846L45.4608 94.8206C45.1114 94.6032 44.7283 94.4456 44.3272 94.3541V93.748C44.3272 93.6324 44.2812 93.5215 44.1995 93.4397C44.1177 93.358 44.0068 93.312 43.8912 93.312H43.0933C42.9777 93.312 42.8668 93.358 42.785 93.4397C42.7032 93.5215 42.6573 93.6324 42.6573 93.748V94.3628C42.2561 94.4543 41.873 94.6119 41.5237 94.8293L41.0877 94.3933C41.0066 94.316 40.8989 94.2729 40.7868 94.2729C40.6748 94.2729 40.5671 94.316 40.486 94.3933L39.9236 94.9557C39.8463 95.0368 39.8031 95.1445 39.8031 95.2566C39.8031 95.3686 39.8463 95.4763 39.9236 95.5574L40.3596 95.9934C40.1383 96.3412 39.9789 96.7248 39.8887 97.127H39.2783C39.1627 97.127 39.0518 97.173 38.97 97.2547C38.8882 97.3365 38.8423 97.4474 38.8423 97.563V98.3565C38.8423 98.4722 38.8882 98.5831 38.97 98.6648C39.0518 98.7466 39.1627 98.7925 39.2783 98.7925H39.8887C39.979 99.1934 40.1383 99.5755 40.3596 99.9218L39.9236 100.358C39.8463 100.439 39.8031 100.547 39.8031 100.659C39.8031 100.771 39.8463 100.878 39.9236 100.959L40.486 101.518C40.5671 101.595 40.6748 101.638 40.7868 101.638C40.8989 101.638 41.0066 101.595 41.0877 101.518L41.5237 101.082C41.873 101.299 42.2561 101.457 42.6573 101.548V102.163C42.6573 102.278 42.7032 102.389 42.785 102.471C42.8668 102.553 42.9777 102.599 43.0933 102.599H43.8912C44.0068 102.599 44.1177 102.553 44.1995 102.471C44.2812 102.389 44.3272 102.278 44.3272 102.163V101.548C44.7283 101.457 45.1114 101.299 45.4608 101.082L45.8968 101.518C45.9779 101.595 46.0856 101.638 46.1976 101.638C46.3096 101.638 46.4174 101.595 46.4984 101.518L47.0609 100.959C47.1382 100.878 47.1813 100.771 47.1813 100.659C47.1813 100.547 47.1382 100.439 47.0609 100.358L46.6249 99.9218C46.8443 99.5746 47.0036 99.1928 47.0958 98.7925H47.7062C47.8195 98.7869 47.9262 98.7373 48.0035 98.6542C48.0809 98.5712 48.1228 98.4613 48.1204 98.3478ZM43.6819 99.7605C43.3083 99.799 42.932 99.7209 42.6046 99.537C42.2773 99.353 42.0149 99.0722 41.8535 98.7331C41.6922 98.394 41.6398 98.0132 41.7036 97.6432C41.7673 97.2731 41.9441 96.9319 42.2097 96.6663C42.4752 96.4008 42.8165 96.224 43.1865 96.1602C43.5566 96.0964 43.9373 96.1488 44.2764 96.3102C44.6155 96.4715 44.8964 96.7339 45.0803 97.0613C45.2643 97.3887 45.3423 97.765 45.3038 98.1385C45.2609 98.5541 45.0763 98.9422 44.7809 99.2375C44.4855 99.5329 44.0974 99.7176 43.6819 99.7605Z" fill="white"/>
<path d="M48.9707 76.8661H32.6643C32.6146 76.8661 32.5669 76.8463 32.5317 76.8112C32.4966 76.776 32.4768 76.7283 32.4768 76.6786C32.4768 76.6285 32.4964 76.5803 32.5314 76.5445C32.5665 76.5086 32.6142 76.4879 32.6643 76.4868H48.9707C49.0216 76.4868 49.0704 76.507 49.1063 76.5429C49.1423 76.5789 49.1625 76.6277 49.1625 76.6786C49.1614 76.7287 49.1407 76.7764 49.1048 76.8114C49.069 76.8465 49.0208 76.8661 48.9707 76.8661Z" fill="#263238"/>
<path d="M48.9707 79.2205H32.6643C32.6142 79.2193 32.5665 79.1986 32.5314 79.1628C32.4964 79.1269 32.4768 79.0788 32.4768 79.0286C32.4768 78.9789 32.4966 78.9312 32.5317 78.8961C32.5669 78.8609 32.6146 78.8412 32.6643 78.8412H48.9707C49.0208 78.8411 49.069 78.8608 49.1048 78.8958C49.1407 78.9308 49.1614 78.9785 49.1625 79.0286C49.1625 79.0795 49.1423 79.1283 49.1063 79.1643C49.0704 79.2003 49.0216 79.2205 48.9707 79.2205Z" fill="#263238"/>
<path d="M48.9707 81.5705H32.6643C32.6146 81.5705 32.5669 81.5508 32.5317 81.5156C32.4966 81.4805 32.4768 81.4328 32.4768 81.3831C32.4768 81.3329 32.4964 81.2848 32.5314 81.2489C32.5665 81.2131 32.6142 81.1924 32.6643 81.1912H48.9707C49.0216 81.1912 49.0704 81.2114 49.1063 81.2474C49.1423 81.2834 49.1625 81.3322 49.1625 81.3831C49.1614 81.4332 49.1407 81.4809 49.1048 81.5159C49.069 81.5509 49.0208 81.5706 48.9707 81.5705Z" fill="#263238"/>
<path d="M48.9707 83.9249H32.6643C32.6142 83.9238 32.5665 83.9031 32.5314 83.8672C32.4964 83.8314 32.4768 83.7832 32.4768 83.7331C32.4768 83.6833 32.4966 83.6357 32.5317 83.6005C32.5669 83.5653 32.6146 83.5456 32.6643 83.5456H48.9707C49.0208 83.5456 49.069 83.5652 49.1048 83.6002C49.1407 83.6353 49.1614 83.683 49.1625 83.7331C49.1625 83.7839 49.1423 83.8327 49.1063 83.8687C49.0704 83.9047 49.0216 83.9249 48.9707 83.9249Z" fill="#263238"/>
<path d="M117.366 48.4912H30.8635C29.91 48.4912 29.137 49.2642 29.137 50.2178V50.414C29.137 51.3675 29.91 52.1405 30.8635 52.1405H117.366C118.319 52.1405 119.092 51.3675 119.092 50.414V50.2178C119.092 49.2642 118.319 48.4912 117.366 48.4912Z" fill="#D2E558"/>
<path d="M117.366 60.5248H30.8635C29.91 60.5248 29.137 61.2978 29.137 62.2514V62.4476C29.137 63.4011 29.91 64.1741 30.8635 64.1741H117.366C118.319 64.1741 119.092 63.4011 119.092 62.4476V62.2514C119.092 61.2978 118.319 60.5248 117.366 60.5248Z" fill="#D2E558"/>
<path d="M69.454 123.736L69.6415 119.764H63.9604L63.5811 123.736H69.454Z" fill="#263238"/>
<path d="M69.6633 123.954H63.3413L63.7773 119.546H69.8813L69.6633 123.954ZM63.8209 123.518H69.2448L69.4148 119.982H64.1566L63.8209 123.518Z" fill="white"/>
<path d="M81.1998 123.736L81.0079 119.764H75.3225L75.3269 123.736H81.1998Z" fill="#263238"/>
<path d="M81.4309 123.954H75.1089V119.546H81.2129L81.4309 123.954ZM75.5449 123.518H80.9687L80.7987 119.982H75.5405L75.5449 123.518Z" fill="white"/>
<path d="M111.785 127.978H117.863L116.437 123.736H110.564L111.785 127.978Z" fill="#263238"/>
<path d="M118.164 128.192H111.624L110.272 123.514H116.594L118.164 128.192ZM111.951 127.756H117.558L116.28 123.95H110.852L111.951 127.756Z" fill="white"/>
<path d="M63.5809 123.736L63.9603 119.764H58.2748L57.708 123.736H63.5809Z" fill="#263238"/>
<path d="M63.7817 123.954H57.4597L58.0876 119.546H64.1916L63.7817 123.954ZM57.9611 123.518H63.385L63.7207 119.982H58.4887L57.9611 123.518Z" fill="white"/>
<path d="M51.8351 123.736L52.5937 119.764H46.9083L45.9622 123.736H51.8351Z" fill="#263238"/>
<path d="M52.0182 123.954H45.6875L46.7383 119.546H52.8422L52.0182 123.954ZM46.2412 123.518H51.6563L52.3278 119.982H47.0958L46.2412 123.518Z" fill="white"/>
<path d="M104.692 123.736L103.737 119.764H98.0557L98.8187 123.736H104.692Z" fill="#263238"/>
<path d="M104.966 123.954H98.6354L97.7896 119.546H103.894L104.966 123.954ZM98.9973 123.518H104.412L103.567 119.982H98.3346L98.9973 123.518Z" fill="white"/>
<path d="M110.564 123.736L109.418 119.764H103.737L104.691 123.736H110.564Z" fill="#263238"/>
<path d="M110.852 123.954H104.517L103.462 119.546H109.566L110.852 123.954ZM104.861 123.518H110.272L109.256 119.982H104.024L104.861 123.518Z" fill="white"/>
<path d="M45.9623 123.736L46.9084 119.764H41.2273L40.0894 123.736H45.9623Z" fill="#263238"/>
<path d="M46.1366 123.954H39.8015L41.0616 119.546H47.1874L46.1366 123.954ZM40.3814 123.518H45.7878L46.6293 119.982H41.3973L40.3814 123.518Z" fill="white"/>
<path d="M87.0728 123.736L86.6891 119.764H81.0081L81.1999 123.736H87.0728Z" fill="#263238"/>
<path d="M87.3125 123.954H80.9905L80.7769 119.546H86.8809L87.3125 123.954ZM81.4091 123.518H86.8329L86.4928 119.982H81.2347L81.4091 123.518Z" fill="white"/>
<path d="M116.437 123.736L115.103 119.764H109.418L110.564 123.736H116.437Z" fill="#263238"/>
<path d="M116.738 123.954H110.399L109.13 119.546H115.26L116.738 123.954ZM110.726 123.518H116.132L114.946 119.982H109.714L110.726 123.518Z" fill="white"/>
<path d="M98.8186 123.736L98.0556 119.764H92.3701L92.9456 123.736H98.8186Z" fill="#263238"/>
<path d="M99.0802 123.954H92.7582L92.1216 119.546H98.2256L99.0802 123.954ZM93.1331 123.518H98.5439L97.8637 119.982H92.6317L93.1331 123.518Z" fill="white"/>
<path d="M92.9456 123.736L92.3701 119.764H86.689L87.0726 123.736H92.9456Z" fill="#263238"/>
<path d="M93.1984 123.954H86.8764L86.4404 119.546H92.5444L93.1984 123.954ZM87.2688 123.518H92.6927L92.1826 119.982H86.9287L87.2688 123.518Z" fill="white"/>
<path d="M75.3268 123.736L75.3224 119.764H69.6413L69.4539 123.736H75.3268Z" fill="#263238"/>
<path d="M75.5449 123.954H69.2273L69.4322 119.546H75.5362L75.5449 123.954ZM69.6851 123.518H75.1089V119.982H69.8508L69.6851 123.518Z" fill="white"/>
<path d="M34.2209 123.736H28.348L26.7261 127.978H32.7996L34.2209 123.736Z" fill="#263238"/>
<path d="M32.9565 128.192H26.4165L28.2041 123.514H34.5305L32.9565 128.192ZM27.04 127.756H32.6426L33.9157 123.95H28.4962L27.04 127.756Z" fill="white"/>
<path d="M35.5463 119.764H29.8608L28.3479 123.736H34.2208L35.5463 119.764Z" fill="#263238"/>
<path d="M34.3733 123.954H28.0295L29.7125 119.546H35.847L34.3733 123.954ZM28.6617 123.518H34.0594L35.241 119.982H30.009L28.6617 123.518Z" fill="white"/>
<path d="M40.0893 123.736L41.2272 119.764H35.5461L34.2207 123.736H40.0893Z" fill="#263238"/>
<path d="M40.255 123.954H33.9155L35.3892 119.546H41.4932L40.255 123.954ZM34.5216 123.518H39.928L40.9395 119.982H35.7075L34.5216 123.518Z" fill="white"/>
<path d="M24.9862 132.526L23.1201 137.413H29.647L31.282 132.526H24.9862Z" fill="#263238"/>
<path d="M29.8042 137.631H22.802L24.8599 132.308H31.6048L29.8042 137.631ZM23.4342 137.195H29.4902L30.9639 132.744H25.139L23.4342 137.195Z" fill="white"/>
<path d="M32.7995 127.978H26.726L24.9863 132.526H31.2822L32.7995 127.978Z" fill="#263238"/>
<path d="M31.439 132.744H24.668L26.5733 127.756H33.1133L31.439 132.744ZM25.3045 132.308H31.1251L32.4985 128.196H26.8741L25.3045 132.308Z" fill="white"/>
<path d="M31.2822 132.526L29.6472 137.413H36.1741L37.5737 132.526H31.2822Z" fill="#263238"/>
<path d="M36.3398 137.631H29.3638L31.1427 132.308H37.8788L36.3398 137.631ZM29.948 137.195H36.0084L37.2859 132.744H31.4391L29.948 137.195Z" fill="white"/>
<path d="M57.7081 123.736L58.2749 119.764H52.5938L51.8352 123.736H57.7081Z" fill="#263238"/>
<path d="M57.8998 123.954H51.5735L52.4106 119.546H58.5146L57.8998 123.954ZM52.101 123.518H57.5205L58.0219 119.982H52.7638L52.101 123.518Z" fill="white"/>
<path d="M57.102 127.978L57.7081 123.736H51.8352L51.0286 127.978H57.102Z" fill="#263238"/>
<path d="M57.2939 128.192H50.7539L51.6477 123.514H57.9523L57.2939 128.192ZM51.2902 127.756H56.9146L57.4596 123.95H52.0183L51.2902 127.756Z" fill="white"/>
<path d="M51.0285 127.978L51.8351 123.736H45.9622L44.9507 127.978H51.0285Z" fill="#263238"/>
<path d="M51.2075 128.192H44.6675L45.788 123.518H52.0969L51.2075 128.192ZM45.2299 127.756H50.8456L51.5737 123.95H46.1368L45.2299 127.756Z" fill="white"/>
<path d="M63.1799 127.978L63.581 123.736H57.7081L57.1021 127.978H63.1799Z" fill="#263238"/>
<path d="M63.3762 128.192H56.8362L57.5033 123.514H63.8035L63.3762 128.192ZM57.355 127.756H62.9794L63.3413 123.95H57.9L57.355 127.756Z" fill="white"/>
<path d="M40.0895 123.736H34.2209L32.7996 127.978H38.8774L40.0895 123.736Z" fill="#263238"/>
<path d="M39.0385 128.192H32.4985L34.0594 123.514H40.3814L39.0385 128.192ZM33.1046 127.756H38.7115L39.8015 123.95H34.3733L33.1046 127.756Z" fill="white"/>
<path d="M113.098 132.526H119.389L117.863 127.978H111.785L113.098 132.526Z" fill="#263238"/>
<path d="M119.694 132.744H112.932L111.498 127.756H118.038L119.694 132.744ZM113.259 132.308H119.088L117.728 128.192H112.06L113.259 132.308Z" fill="white"/>
<path d="M44.9507 127.978L45.9622 123.736H40.0893L38.8772 127.978H44.9507Z" fill="#263238"/>
<path d="M45.1252 128.192H38.5852L39.9281 123.514H46.2239L45.1252 128.192ZM39.1651 127.756H44.7808L45.6877 123.95H40.2551L39.1651 127.756Z" fill="white"/>
<path d="M32.7995 127.978L31.2822 132.526H37.5737L38.8773 127.978H32.7995Z" fill="#263238"/>
<path d="M37.7393 132.744H30.9639L32.6425 127.756H39.1825L37.7393 132.744ZM31.583 132.308H37.4079L38.5851 128.196H32.9564L31.583 132.308Z" fill="white"/>
<path d="M99.6338 127.978L98.8185 123.736H92.9456L93.5603 127.978H99.6338Z" fill="#263238"/>
<path d="M99.8999 128.192H93.3599L92.6841 123.514H98.9799L99.8999 128.192ZM93.7479 127.756H99.3723L98.6355 123.95H93.1986L93.7479 127.756Z" fill="white"/>
<path d="M93.5604 127.978L92.9457 123.736H87.0728L87.4826 127.978H93.5604Z" fill="#263238"/>
<path d="M93.809 128.192H87.269L86.833 123.514H93.1332L93.809 128.192ZM87.6788 127.756H93.312L92.7626 123.95H87.3126L87.6788 127.756Z" fill="white"/>
<path d="M111.785 127.978L110.564 123.736H104.691L105.712 127.978H111.785Z" fill="#263238"/>
<path d="M112.06 128.192H105.52L104.395 123.514H110.708L112.06 128.192ZM105.864 127.756H111.48L110.381 123.95H104.966L105.864 127.756Z" fill="white"/>
<path d="M75.3312 127.978L75.3269 123.736H69.454L69.2534 127.978H75.3312Z" fill="#263238"/>
<path d="M75.5493 128.192H69.0093L69.2273 123.514H75.5275L75.5493 128.192ZM69.4845 127.756H75.1133V123.95H69.6633L69.4845 127.756Z" fill="white"/>
<path d="M87.4825 127.978L87.0726 123.736H81.1997L81.4046 127.978H87.4825Z" fill="#263238"/>
<path d="M87.7222 128.192H81.1823L80.9512 123.514H87.2514L87.7222 128.192ZM81.6182 127.756H87.247L86.8808 123.95H81.4308L81.6182 127.756Z" fill="white"/>
<path d="M81.4047 127.978L81.1998 123.736H75.3269L75.3313 127.978H81.4047Z" fill="#263238"/>
<path d="M81.6357 128.192H75.0957V123.518H81.409L81.6357 128.192ZM75.5317 127.756H81.1605L80.973 123.95H75.5448L75.5317 127.756Z" fill="white"/>
<path d="M69.2534 127.978L69.454 123.736H63.5811L63.1799 127.978H69.2534Z" fill="#263238"/>
<path d="M69.4626 128.192H62.9226L63.3586 123.514H69.6588L69.4626 128.192ZM63.4196 127.756H69.0484L69.2272 123.95H63.7815L63.4196 127.756Z" fill="white"/>
<path d="M87.4827 127.978L87.923 132.526H94.2145L93.5605 127.978H87.4827Z" fill="#263238"/>
<path d="M94.4672 132.744H87.7223L87.2427 127.756H93.7478L94.4672 132.744ZM88.119 132.308H93.9658L93.3685 128.192H87.7223L88.119 132.308Z" fill="white"/>
<path d="M93.5603 127.978L94.2143 132.526H100.51L99.6338 127.978H93.5603Z" fill="#263238"/>
<path d="M100.772 132.744H94.0268L93.3118 127.756H99.8169L100.772 132.744ZM94.4061 132.308H100.244L99.455 128.192H93.8088L94.4061 132.308Z" fill="white"/>
<path d="M38.8774 127.978L37.5737 132.526H43.8652L44.9509 127.978H38.8774Z" fill="#263238"/>
<path d="M44.0439 132.744H37.2859L38.7116 127.756H45.2298L44.0439 132.744ZM37.8658 132.308H43.6951L44.6761 128.196H39.0386L37.8658 132.308Z" fill="white"/>
<path d="M99.6338 127.978L100.51 132.526H106.802L105.712 127.978H99.6338Z" fill="#263238"/>
<path d="M107.081 132.744H100.332L99.3723 127.756H105.882L107.081 132.744ZM100.689 132.308H106.527L105.52 128.192H99.8999L100.689 132.308Z" fill="white"/>
<path d="M75.3313 127.978L75.3357 132.526H81.6272L81.4048 127.978H75.3313Z" fill="#263238"/>
<path d="M81.8582 132.744H75.1177V127.756H81.6184L81.8582 132.744ZM75.5537 132.308H81.4004L81.1999 128.196H75.5319L75.5537 132.308Z" fill="white"/>
<path d="M105.712 127.978L106.802 132.526H113.098L111.785 127.978H105.712Z" fill="#263238"/>
<path d="M113.368 132.744H106.632L105.433 127.756H111.951L113.368 132.744ZM106.959 132.308H112.788L111.624 128.192H105.986L106.959 132.308Z" fill="white"/>
<path d="M81.4048 127.978L81.6271 132.526H87.923L87.4826 127.978H81.4048Z" fill="#263238"/>
<path d="M88.1627 132.744H81.4221L81.178 127.756H87.6787L88.1627 132.744ZM81.8363 132.308H87.6831L87.2863 128.196H81.6183L81.8363 132.308Z" fill="white"/>
<path d="M51.0285 127.978L50.1609 132.526H56.4567L57.102 127.978H51.0285Z" fill="#263238"/>
<path d="M56.6443 132.744H49.8994L50.8455 127.756H57.355L56.6443 132.744ZM50.4226 132.308H56.2519L56.8405 128.196H51.2074L50.4226 132.308Z" fill="white"/>
<path d="M44.9509 127.978L43.8652 132.526H50.1611L51.0287 127.978H44.9509Z" fill="#263238"/>
<path d="M50.3397 132.744H43.6079L44.7808 127.756H51.2902L50.3397 132.744ZM44.1442 132.308H49.9822L50.7627 128.196H45.1252L44.1442 132.308Z" fill="white"/>
<path d="M69.2535 127.978L69.0442 132.526H75.3357L75.3313 127.978H69.2535Z" fill="#263238"/>
<path d="M75.5536 132.744H68.813L69.0484 127.76H75.5492L75.5536 132.744ZM69.2708 132.308H75.1176V128.192H69.4496L69.2708 132.308Z" fill="white"/>
<path d="M63.1799 127.978L62.7483 132.526H69.0441L69.2534 127.978H63.1799Z" fill="#263238"/>
<path d="M69.2491 132.744H62.5085L62.9794 127.756H69.4846L69.2491 132.744ZM62.9881 132.308H68.8349L69.0268 128.196H63.3587L62.9881 132.308Z" fill="white"/>
<path d="M57.1021 127.978L56.4568 132.526H62.7483L63.1799 127.978H57.1021Z" fill="#263238"/>
<path d="M62.9444 132.744H56.2039L56.9145 127.756H63.4196L62.9444 132.744ZM56.7053 132.308H62.5476L62.94 128.196H57.2721L56.7053 132.308Z" fill="white"/>
<path d="M105.712 127.978L104.692 123.736H98.8186L99.6339 127.978H105.712Z" fill="#263238"/>
<path d="M105.986 128.192H99.4465L98.5439 123.518H104.853L105.986 128.192ZM99.8127 127.756H105.433L104.517 123.95H99.0802L99.8127 127.756Z" fill="white"/>
<path d="M35.5463 119.764L36.9022 115.701H31.413L29.8608 119.764H35.5463Z" fill="#263238"/>
<path d="M35.7032 119.982H29.5469L31.2647 115.483H37.2074L35.7032 119.982ZM30.1791 119.546H35.4111L36.6231 115.919H31.5656L30.1791 119.546Z" fill="white"/>
<path d="M29.8608 119.764H24.6158L22.9241 123.736H28.3479L29.8608 119.764Z" fill="#263238"/>
<path d="M28.496 123.954H22.5969L24.4717 119.546H30.179L28.496 123.954ZM23.264 123.518H28.2039L29.5555 119.982H24.7595L23.264 123.518Z" fill="white"/>
<path d="M31.413 115.701H26.3466L24.6157 119.764H29.8608L31.413 115.701Z" fill="#263238"/>
<path d="M30.0135 119.982H24.2888L26.2029 115.483H31.7313L30.0135 119.982ZM24.9472 119.546H29.7127L31.0991 115.919H26.495L24.9472 119.546Z" fill="white"/>
<path d="M28.348 123.736H22.9241L21.1147 127.978H26.7261L28.348 123.736Z" fill="#263238"/>
<path d="M26.8743 128.192H20.7703L22.7628 123.514H28.6444L26.8743 128.192ZM21.4461 127.756H26.5734L28.0297 123.95H23.068L21.4461 127.756Z" fill="white"/>
<path d="M26.7259 127.978H21.1146L19.1787 132.526H24.9862L26.7259 127.978Z" fill="#263238"/>
<path d="M25.1389 132.744H18.8474L20.9707 127.756H27.0399L25.1389 132.744ZM19.5058 132.308H24.8599L26.4295 128.196H21.2585L19.5058 132.308Z" fill="white"/>
<path d="M24.9863 132.526H19.1788L17.0947 137.413H23.1202L24.9863 132.526Z" fill="#263238"/>
<path d="M23.2686 137.631H16.7634L19.035 132.308H25.2959L23.2686 137.631ZM17.4261 137.195H22.9677L24.6681 132.744H19.3227L17.4261 137.195Z" fill="white"/>
<path d="M122.31 123.736L123.937 127.978H129.312L127.503 123.736H122.31Z" fill="#263238"/>
<path d="M129.644 128.192H123.788L121.992 123.514H127.66L129.644 128.192ZM124.089 127.756H128.981L127.359 123.95H122.624L124.089 127.756Z" fill="white"/>
<path d="M125.685 132.526H131.253L129.312 127.978H123.937L125.685 132.526Z" fill="#263238"/>
<path d="M131.58 132.744H125.532L123.623 127.756H129.456L131.58 132.744ZM125.833 132.308H130.921L129.177 128.196H124.268L125.833 132.308Z" fill="white"/>
<path d="M127.56 137.413H133.332L131.253 132.526H125.685L127.56 137.413Z" fill="#263238"/>
<path d="M133.664 137.631H127.412L125.367 132.308H131.397L133.664 137.631ZM127.708 137.195H132.988L131.091 132.744H126.012L127.708 137.195Z" fill="white"/>
<path d="M81.0079 119.764L80.8074 115.701H75.3181L75.3225 119.764H81.0079Z" fill="#263238"/>
<path d="M81.2346 119.982H75.1045V115.483H81.0166L81.2346 119.982ZM75.5405 119.546H80.7725L80.5937 115.919H75.5361L75.5405 119.546Z" fill="white"/>
<path d="M122.31 123.736H127.503L125.811 119.764H120.784L122.31 123.736Z" fill="#263238"/>
<path d="M127.834 123.954H122.166L120.475 119.546H125.964L127.834 123.954ZM122.458 123.518H127.172L125.667 119.982H121.102L122.458 123.518Z" fill="white"/>
<path d="M119.389 132.526H125.685L123.937 127.978H117.863L119.389 132.526Z" fill="#263238"/>
<path d="M126.012 132.744H119.232L117.558 127.756H124.098L126.012 132.744ZM119.555 132.308H125.375L123.788 128.192H118.164L119.555 132.308Z" fill="white"/>
<path d="M41.2272 119.764L42.3913 115.701H36.9021L35.5461 119.764H41.2272Z" fill="#263238"/>
<path d="M41.3929 119.982H35.241L36.7452 115.483H42.6791L41.3929 119.982ZM35.847 119.546H41.079L42.121 115.919H37.0678L35.847 119.546Z" fill="white"/>
<path d="M115.103 119.764L116.437 123.736H122.31L120.784 119.764H115.103Z" fill="#263238"/>
<path d="M122.624 123.954H116.28L114.798 119.546H120.932L122.624 123.954ZM116.594 123.518H121.992L120.636 119.982H115.404L116.594 123.518Z" fill="white"/>
<path d="M125.811 119.764L124.08 115.701H119.223L120.784 119.764H125.811Z" fill="#263238"/>
<path d="M126.143 119.982H120.636L118.892 115.483H124.224L126.143 119.982ZM120.933 119.546H125.48L123.937 115.919H119.542L120.933 119.546Z" fill="white"/>
<path d="M120.784 119.764L119.223 115.701H113.739L115.103 119.764H120.784Z" fill="#263238"/>
<path d="M121.103 119.982H114.946L113.433 115.483H119.376L121.103 119.982ZM115.26 119.546H120.466L119.075 115.919H114.039L115.26 119.546Z" fill="white"/>
<path d="M100.51 132.526L101.452 137.413H107.979L106.802 132.526H100.51Z" fill="#263238"/>
<path d="M108.253 137.631H101.278L100.253 132.308H106.985L108.253 137.631ZM101.631 137.195H107.7L106.632 132.744H100.772L101.631 137.195Z" fill="white"/>
<path d="M121.033 137.413H127.56L125.685 132.526H119.389L121.033 137.413Z" fill="#263238"/>
<path d="M127.878 137.631H120.876L119.088 132.308H125.833L127.878 137.631ZM121.19 137.195H127.241L125.532 132.744H119.694L121.19 137.195Z" fill="white"/>
<path d="M115.103 119.764L113.739 115.701H108.249L109.418 119.764H115.103Z" fill="#263238"/>
<path d="M115.404 119.982H109.256L107.948 115.483H113.887L115.404 119.982ZM109.583 119.546H114.815L113.599 115.919H108.537L109.583 119.546Z" fill="white"/>
<path d="M113.098 132.526L114.506 137.413H121.033L119.389 132.526H113.098Z" fill="#263238"/>
<path d="M121.333 137.631H114.357L112.823 132.308H119.563L121.333 137.631ZM114.667 137.195H120.727L119.232 132.744H113.368L114.667 137.195Z" fill="white"/>
<path d="M106.802 132.526L107.979 137.413H114.506L113.098 132.526H106.802Z" fill="#263238"/>
<path d="M114.794 137.631H107.818L106.54 132.308H113.272L114.794 137.631ZM108.149 137.195H114.214L112.932 132.744H107.081L108.149 137.195Z" fill="white"/>
<path d="M117.863 127.978H123.936L122.31 123.736H116.437L117.863 127.978Z" fill="#263238"/>
<path d="M124.268 128.192H117.728L116.154 123.514H122.48L124.268 128.192ZM118.033 127.756H123.636L122.171 123.95H116.738L118.033 127.756Z" fill="white"/>
<path d="M63.9603 119.764L64.344 115.701H58.8548L58.2749 119.764H63.9603Z" fill="#263238"/>
<path d="M64.1565 119.982H58.022L58.6673 115.483H64.5838L64.1565 119.982ZM58.5277 119.546H63.7597L64.1042 115.919H59.0466L58.5277 119.546Z" fill="white"/>
<path d="M109.418 119.764L108.249 115.701H102.76L103.737 119.764H109.418Z" fill="#263238"/>
<path d="M109.71 119.982H103.566L102.468 115.483H108.393L109.71 119.982ZM103.907 119.546H109.139L108.092 115.919H103.039L103.907 119.546Z" fill="white"/>
<path d="M58.2748 119.764L58.8547 115.701H53.3655L52.5938 119.764H58.2748Z" fill="#263238"/>
<path d="M58.4668 119.982H52.3279L53.1999 115.483H59.1208L58.4668 119.982ZM52.8554 119.546H58.0874L58.6063 115.919H53.5487L52.8554 119.546Z" fill="white"/>
<path d="M75.3224 119.764L75.3181 115.701H69.8332L69.6414 119.764H75.3224Z" fill="#263238"/>
<path d="M75.5406 119.982H69.4148L69.6241 115.483H75.5362L75.5406 119.982ZM69.8726 119.546H75.1046V115.919H70.0383L69.8726 119.546Z" fill="white"/>
<path d="M52.5939 119.764L53.3656 115.701H47.8807L46.9084 119.764H52.5939Z" fill="#263238"/>
<path d="M52.764 119.982H46.6338L47.7063 115.483H53.636L52.764 119.982ZM47.1788 119.546H52.4108L53.104 115.919H48.0508L47.1788 119.546Z" fill="white"/>
<path d="M46.9084 119.764L47.8807 115.701H42.3914L41.2273 119.764H46.9084Z" fill="#263238"/>
<path d="M47.0958 119.982H40.9395L42.2475 115.483H48.177L47.0958 119.982ZM41.528 119.546H46.76L47.632 115.919H42.557L41.528 119.546Z" fill="white"/>
<path d="M69.6415 119.764L69.8334 115.701H64.3441L63.9604 119.764H69.6415Z" fill="#263238"/>
<path d="M69.8506 119.982H63.7205L64.1565 115.483H70.073L69.8506 119.982ZM64.1826 119.546H69.4146L69.5847 115.919H64.5358L64.1826 119.546Z" fill="white"/>
<path d="M103.737 119.764L102.76 115.701H97.2708L98.0556 119.764H103.737Z" fill="#263238"/>
<path d="M104.011 119.982H97.8725L97.0005 115.483H102.926L104.011 119.982ZM98.2344 119.546H103.466L102.594 115.919H97.5368L98.2344 119.546Z" fill="white"/>
<path d="M98.0556 119.764L97.2708 115.701H91.7859L92.3701 119.764H98.0556Z" fill="#263238"/>
<path d="M98.3171 119.982H92.1826L91.533 115.483H97.4538L98.3171 119.982ZM92.5619 119.546H97.7939L97.0963 115.919H92.0387L92.5619 119.546Z" fill="white"/>
<path d="M86.689 119.764L86.2966 115.701H80.8074L81.0079 119.764H86.689Z" fill="#263238"/>
<path d="M86.9287 119.982H80.7986L80.5806 115.483H86.4927L86.9287 119.982ZM81.2128 119.546H86.4448L86.0916 115.919H81.034L81.2128 119.546Z" fill="white"/>
<path d="M100.51 132.526H94.2144H87.9229H81.6271H75.3356H69.0441H62.7483H56.4568H50.161H43.8651H37.5736L36.1741 137.413H42.701H49.2279H55.7592H62.2861H68.813H75.34H81.8669H88.3938H94.9207H101.452L100.51 132.526Z" fill="#263238"/>
<path d="M101.714 137.631H35.8777L37.3993 132.308H100.689L101.714 137.631ZM36.4619 137.195H101.186L100.314 132.744H37.7394L36.4619 137.195Z" fill="white"/>
<path d="M92.3701 119.764L91.7859 115.701H86.2966L86.689 119.764H92.3701Z" fill="#263238"/>
<path d="M92.6231 119.982H86.4929L86.0569 115.483H91.9734L92.6231 119.982ZM86.8853 119.546H92.1173L91.5897 115.919H86.5321L86.8853 119.546Z" fill="white"/>
<path d="M82.4643 81.1825C88.8863 81.1825 94.0924 74.5553 94.0924 66.3803C94.0924 58.2052 88.8863 51.5781 82.4643 51.5781C76.0423 51.5781 70.8362 58.2052 70.8362 66.3803C70.8362 74.5553 76.0423 81.1825 82.4643 81.1825Z" fill="#263238"/>
<path d="M82.4642 81.3961C75.9242 81.3961 70.6138 74.6599 70.6138 66.3803C70.6138 58.1006 75.9286 51.3601 82.4642 51.3601C88.9999 51.3601 94.3104 58.0963 94.3104 66.3803C94.3104 74.6643 88.9955 81.3961 82.4642 81.3961ZM82.4642 51.7961C76.1684 51.7961 71.0498 58.3361 71.0498 66.3803C71.0498 74.4245 76.1684 80.9601 82.4642 80.9601C88.7601 80.9601 93.8744 74.4201 93.8744 66.3803C93.8744 58.3404 88.7557 51.7961 82.4642 51.7961Z" fill="#263238"/>
<path d="M56.252 104.077C55.1838 104.077 53.9717 103.131 53.3265 102.546C52.4196 101.722 51.4822 100.567 51.4822 100.053C51.4822 99.3157 60.2022 73.0206 61.2093 70.034C61.2206 69.9991 61.2405 69.9676 61.2672 69.9425C61.2939 69.9173 61.3265 69.8993 61.3619 69.8901C61.3968 69.8813 61.4332 69.881 61.4681 69.8894C61.503 69.8978 61.5354 69.9144 61.5625 69.938L64.863 72.9508C64.8888 72.9742 64.9085 73.0034 64.9207 73.0361C64.9328 73.0687 64.937 73.1037 64.9328 73.1383L61.6802 101.705C61.6763 101.738 61.6648 101.77 61.6466 101.798C61.6285 101.826 61.6042 101.849 61.5756 101.866C61.4404 101.949 58.2576 103.885 56.4221 104.068L56.252 104.077ZM61.5189 70.5048C58.7721 78.7888 51.9923 99.2808 51.9269 100.079C51.9269 100.327 52.5896 101.299 53.6273 102.237C54.665 103.174 55.6983 103.715 56.3872 103.65C57.9611 103.493 60.7472 101.884 61.266 101.565L64.4968 73.2255L61.5189 70.5048Z" fill="#263238"/>
<path d="M80.6898 66.2408L61.4011 70.0994L64.488 108.101H102.106L107.12 68.5559L84.1603 66.0489L80.6898 66.2408Z" fill="#D2E558"/>
<path d="M102.106 108.319H64.4879C64.4335 108.319 64.381 108.299 64.3413 108.261C64.3016 108.224 64.2776 108.173 64.2743 108.119L61.1831 70.1168C61.1788 70.0636 61.1942 70.0107 61.2264 69.9681C61.2585 69.9256 61.3052 69.8962 61.3575 69.8857L80.6679 66.0271L84.1559 65.8309L107.146 68.3423C107.204 68.3485 107.257 68.3766 107.294 68.4208C107.312 68.4441 107.325 68.4708 107.333 68.4992C107.34 68.5277 107.342 68.5573 107.338 68.5864L102.324 108.136C102.316 108.188 102.289 108.234 102.249 108.268C102.209 108.302 102.158 108.32 102.106 108.319ZM64.6929 107.883H101.914L106.876 68.7521L84.1559 66.28L80.7333 66.4719L61.6496 70.2912L64.6929 107.883Z" fill="#263238"/>
<path opacity="0.3" d="M64.488 108.101H102.106L103.052 100.659L102.982 100.297L93.9049 102.276L97.8638 85.6122L76.0812 95.1824L70.8013 100.462H74.1018L64.3877 106.854L64.488 108.101Z" fill="black"/>
<path d="M78.6405 64.1C78.6405 64.1 75.51 65.8135 74.7165 67.3526C73.923 68.8916 70.6399 80.3235 70.6399 80.3235L76.0419 81.4833L70.8361 83.9903L78.7146 106.558L91.254 105.786L99.4159 82.0588L94.3975 79.9399L98.836 78.0084C98.836 78.0084 94.5937 69.9075 92.296 66.437C89.9983 62.9664 78.6405 64.1 78.6405 64.1Z" fill="#D2E558"/>
<path d="M78.732 106.776C78.6872 106.776 78.6435 106.762 78.6069 106.736C78.5702 106.71 78.5424 106.674 78.5271 106.632L70.6399 84.0601C70.623 84.0096 70.6253 83.9546 70.6461 83.9056C70.667 83.8566 70.7051 83.817 70.7533 83.7941L75.3879 81.5618L70.5919 80.5372C70.5625 80.5309 70.5346 80.5188 70.5099 80.5015C70.4852 80.4843 70.4642 80.4624 70.4481 80.4369C70.4328 80.4109 70.4229 80.382 70.4192 80.352C70.4155 80.322 70.4178 80.2916 70.4263 80.2625C70.5614 79.796 73.7486 68.8001 74.5203 67.2567C75.292 65.7132 78.3832 63.9823 78.514 63.9082C78.5395 63.8943 78.5679 63.8868 78.5969 63.8864C79.0634 63.8384 90.0637 62.7746 92.4224 66.3149C94.7201 69.7549 98.9624 77.8297 98.9929 77.9081C99.0058 77.9354 99.0124 77.9652 99.0124 77.9953C99.0124 78.0255 99.0058 78.0553 98.9929 78.0825C98.984 78.1111 98.9688 78.1372 98.9484 78.1591C98.928 78.181 98.903 78.198 98.8752 78.209L94.9033 79.953L99.4507 81.8757C99.5018 81.8979 99.5426 81.9385 99.5652 81.9893C99.5878 82.0402 99.5905 82.0977 99.5728 82.1504L91.4414 105.878C91.427 105.918 91.4012 105.953 91.3671 105.978C91.333 106.004 91.2921 106.019 91.2496 106.021L78.7103 106.793L78.732 106.776ZM71.1195 84.1037L78.8847 106.34L91.0926 105.59L99.1107 82.1897L94.2842 80.1492C94.2443 80.1328 94.2103 80.105 94.1862 80.0694C94.1622 80.0337 94.1492 79.9917 94.149 79.9486C94.1494 79.9062 94.1619 79.8648 94.1851 79.8292C94.2083 79.7937 94.2411 79.7655 94.2798 79.7481L98.5046 77.9125C97.8245 76.6045 94.1446 69.6808 92.0649 66.5765C89.9198 63.3588 79.4602 64.2657 78.6884 64.3354C78.3309 64.536 75.6016 66.0795 74.9127 67.4747C74.2238 68.8699 71.3855 78.5752 70.9146 80.1841L76.0899 81.2915C76.1342 81.3012 76.1744 81.3244 76.2049 81.358C76.2354 81.3916 76.2546 81.4339 76.2599 81.479C76.2641 81.524 76.2547 81.5692 76.2329 81.6088C76.2111 81.6485 76.178 81.6807 76.1379 81.7013L71.1195 84.1037Z" fill="#263238"/>
<path d="M78.1523 108.489L77.991 68.7521L88.407 67.7842L91.4634 108.101L78.1523 108.489Z" fill="white"/>
<path d="M78.1523 108.707C78.0956 108.707 78.0412 108.685 77.9997 108.646C77.9588 108.604 77.9354 108.548 77.9343 108.489L77.773 68.7521C77.7717 68.6976 77.7913 68.6447 77.8278 68.6041C77.8643 68.5636 77.9149 68.5386 77.9692 68.5341L88.3853 67.588C88.414 67.5838 88.4433 67.586 88.4712 67.5943C88.499 67.6025 88.5248 67.6168 88.5466 67.636C88.5917 67.6746 88.6199 67.7294 88.6251 67.7886L91.6771 108.105C91.6787 108.135 91.6746 108.164 91.6648 108.192C91.6551 108.22 91.64 108.245 91.6204 108.267C91.6006 108.289 91.5765 108.307 91.5494 108.319C91.5223 108.331 91.493 108.337 91.4634 108.337L78.1567 108.725L78.1523 108.707ZM78.209 68.9483L78.3703 108.262L91.228 107.892L88.2065 68.024L78.209 68.9483Z" fill="#263238"/>
<path d="M76.4475 58.3317C76.4475 58.3317 77.7947 65.8571 77.9909 67.7842C78.1871 69.7113 83.1663 83.4148 84.6574 81.1781C86.2837 78.7409 88.2151 71.0673 88.5814 69.3276C88.9476 67.588 88.9694 60.0714 88.9694 60.0714C88.9694 60.0714 83.9685 63.5419 76.4475 58.3317Z" fill="white"/>
<path d="M84.265 81.6446C84.2091 81.6435 84.1536 81.6362 84.0993 81.6228C82.0501 81.1127 77.9604 69.6677 77.773 67.806C77.5855 65.9443 76.247 58.4494 76.2295 58.3709C76.2216 58.3283 76.2265 58.2843 76.2437 58.2445C76.261 58.2047 76.2897 58.1709 76.3262 58.1475C76.3627 58.1241 76.4054 58.1121 76.4487 58.1131C76.4921 58.114 76.5342 58.1279 76.5696 58.1529C83.8857 63.2193 88.8125 59.9231 88.8605 59.8969C88.8948 59.8766 88.9339 59.8659 88.9738 59.8659C89.0137 59.8659 89.0529 59.8766 89.0872 59.8969C89.1224 59.9163 89.1519 59.9446 89.1726 59.9791C89.1933 60.0136 89.2044 60.0529 89.2049 60.0931C89.2049 60.3983 89.2049 67.6577 88.8125 69.3974C88.3765 71.2896 86.4886 78.8499 84.8405 81.322C84.7796 81.4199 84.6948 81.5008 84.5942 81.5572C84.4936 81.6136 84.3804 81.6437 84.265 81.6446ZM76.744 58.8026C77.0492 60.5466 78.052 66.1187 78.1959 67.7624C78.3834 69.6415 82.5166 80.7813 84.1952 81.1999C84.2737 81.1999 84.3653 81.1999 84.4699 81.0604C86.0613 78.6667 87.9885 71.0324 88.3939 69.2884C88.7209 67.8191 88.7689 61.9985 88.7733 60.455C87.5176 61.0959 82.9832 62.8966 76.744 58.8026Z" fill="#263238"/>
<path d="M88.9084 65.0723C88.9869 62.6045 88.9869 60.0714 88.9869 60.0714C88.9869 60.0714 83.9685 63.5594 76.4475 58.3274C76.4475 58.3274 77.0012 61.4273 77.4503 64.1567C78.4793 65.4647 80.4369 67.5444 82.8524 67.9324C85.3332 68.3336 87.3388 67.0168 88.9084 65.0723Z" fill="#D2E558"/>
<path opacity="0.5" d="M88.9084 65.0723C88.9869 62.6045 88.9869 60.0714 88.9869 60.0714C88.9869 60.0714 83.9685 63.5594 76.4475 58.3274C76.4475 58.3274 77.0012 61.4273 77.4503 64.1567C78.4793 65.4647 80.4369 67.5444 82.8524 67.9324C85.3332 68.3336 87.3388 67.0168 88.9084 65.0723Z" fill="white"/>
<path d="M93.0374 50.8107C93.0374 50.8107 95.1563 48.1075 95.1563 51.1944C95.1563 54.2813 93.0374 54.6824 93.0374 54.6824V50.8107Z" fill="white"/>
<path d="M93.0374 54.8873C92.986 54.888 92.9362 54.8693 92.8979 54.835C92.8726 54.8156 92.8523 54.7905 92.8386 54.7616C92.825 54.7328 92.8184 54.7012 92.8194 54.6693V50.8107C92.8185 50.7621 92.8338 50.7145 92.863 50.6755C93.0505 50.4401 94.0097 49.2803 94.7422 49.5332C95.1782 49.6815 95.3744 50.2265 95.3744 51.1944C95.3744 54.4251 93.0985 54.8786 93.0767 54.883L93.0374 54.8873ZM93.2554 50.8848V54.3728C93.783 54.1636 94.9384 53.4441 94.9384 51.1944C94.9384 50.1741 94.703 49.9823 94.6027 49.9474C94.28 49.8384 93.6304 50.427 93.2554 50.8848Z" fill="#263238"/>
<path d="M72.009 44.4451C72.009 44.4451 74.516 55.8116 74.516 57.3682C74.516 60.6425 80.6898 64.3136 83.3886 65.0854C86.0875 65.8571 92.6493 59.8752 93.0373 58.3317C93.4254 56.7883 93.6128 43.2854 92.8411 40.5865C92.0694 37.8877 87.644 36.148 84.7402 36.148C81.8365 36.148 73.3606 37.6915 72.009 44.4451Z" fill="white"/>
<path d="M83.9207 65.3731C83.7217 65.3752 83.5235 65.3487 83.3321 65.2947C80.7161 64.5448 74.2981 60.8387 74.2981 57.3682C74.2981 55.8553 71.8217 44.6065 71.7955 44.4931C71.7911 44.4627 71.7911 44.4319 71.7955 44.4015C73.1776 37.4866 81.8235 35.9301 84.7403 35.9301C87.6572 35.9301 92.2395 37.6741 93.0505 40.5255C93.8615 43.3769 93.626 56.8711 93.2467 58.4015C92.9633 59.5395 89.7849 62.683 86.9247 64.3355C85.7126 65.02 84.7055 65.3731 83.9207 65.3731ZM72.2315 44.4451C72.4277 45.3389 74.7341 55.8465 74.7341 57.3725C74.7341 60.4943 80.7902 64.1175 83.4542 64.8805C84.1736 65.0854 85.2984 64.7627 86.7111 63.9474C89.5451 62.3124 92.5927 59.2212 92.8151 58.2794C93.1769 56.8275 93.395 43.3421 92.6232 40.6476C91.8777 38.0316 87.4523 36.3661 84.7316 36.3661C81.9194 36.3661 73.5875 37.8528 72.2315 44.4408V44.4451Z" fill="#263238"/>
<path d="M84.7402 36.148C81.8496 36.148 73.3606 37.6915 72.009 44.432C72.009 44.432 73.5089 51.2336 74.189 55.0356C74.189 53.2916 74.4942 49.9518 76.369 48.4956C78.9589 46.4812 83.2797 46.1891 85.7256 45.0381C88.1716 43.887 88.7471 40.8656 88.7471 40.8656C88.7471 40.8656 88.891 46.1891 90.0551 47.4884C91.2192 48.7877 92.3615 49.6684 92.5054 51.9487C92.6493 54.229 93.0809 56.5528 91.9299 58.4276C90.7789 60.3024 86.0265 63.8951 83.8682 64.6145C83.5369 64.7278 83.2143 64.8238 82.9091 64.9153C83.0791 64.9764 83.2448 65.033 83.3974 65.0766C86.1006 65.8484 92.658 59.8664 93.0461 58.323C93.4341 56.7796 93.6216 43.2766 92.8499 40.5778C92.0781 37.879 87.644 36.148 84.7402 36.148Z" fill="#D2E558"/>
<path d="M80.7335 63.943C79.6827 62.8835 76.8095 59.9493 75.5015 58.4363C75.1236 58.0053 74.7851 57.5413 74.49 57.0499C74.49 57.1763 74.49 57.2897 74.49 57.3681C74.5162 59.7879 77.8821 62.4214 80.7335 63.943Z" fill="#D2E558"/>
<g opacity="0.5">
<path opacity="0.5" d="M84.7402 36.148C81.8496 36.148 73.3606 37.6915 72.009 44.432C72.009 44.432 73.5089 51.2336 74.189 55.0356C74.189 53.2916 74.4942 49.9518 76.369 48.4956C78.9589 46.4812 83.2797 46.1891 85.7256 45.0381C88.1716 43.887 88.7471 40.8656 88.7471 40.8656C88.7471 40.8656 88.891 46.1891 90.0551 47.4884C91.2192 48.7877 92.3615 49.6684 92.5054 51.9487C92.6493 54.229 93.0809 56.5528 91.9299 58.4276C90.7789 60.3024 86.0265 63.8951 83.8682 64.6145C83.5369 64.7278 83.2143 64.8238 82.9091 64.9153C83.0791 64.9764 83.2448 65.033 83.3974 65.0766C86.1006 65.8484 92.658 59.8664 93.0461 58.323C93.4341 56.7796 93.6216 43.2766 92.8499 40.5778C92.0781 37.879 87.644 36.148 84.7402 36.148Z" fill="white"/>
<path opacity="0.5" d="M80.7335 63.943C79.6827 62.8835 76.8095 59.9493 75.5015 58.4363C75.1236 58.0053 74.7851 57.5413 74.49 57.0499C74.49 57.1763 74.49 57.2897 74.49 57.3681C74.5162 59.7879 77.8821 62.4214 80.7335 63.943Z" fill="white"/>
</g>
<path d="M81.9977 51.4255C81.9977 51.9661 81.758 52.4021 81.4571 52.4021C81.1563 52.4021 80.9121 51.9661 80.9121 51.4255C80.9121 50.8848 81.1563 50.4489 81.4571 50.4489C81.758 50.4489 81.9977 50.8848 81.9977 51.4255Z" fill="#263238"/>
<path d="M88.3503 51.4255C88.3503 51.9661 88.1061 52.4021 87.8053 52.4021C87.5044 52.4021 87.2603 51.9661 87.2603 51.4255C87.2603 50.8848 87.5044 50.4489 87.8053 50.4489C88.1061 50.4489 88.3503 50.8848 88.3503 51.4255Z" fill="#263238"/>
<path d="M85.3986 55.5544C85.3547 55.5551 85.3118 55.542 85.2758 55.517C85.2398 55.4919 85.2126 55.4562 85.198 55.4149C85.1763 55.3617 85.1765 55.3021 85.1986 55.249C85.2206 55.1959 85.2627 55.1537 85.3157 55.1315C86.1877 54.7914 87.4173 54.12 87.4957 53.7014C87.5306 53.5401 87.4652 53.4834 86.9115 53.3613C86.5092 53.3065 86.1301 53.1404 85.8171 52.8817C85.1675 52.2321 85.6994 50.4096 85.7648 50.2047C85.7816 50.1469 85.8206 50.0981 85.8734 50.0691C85.8995 50.0547 85.9282 50.0456 85.9578 50.0423C85.9874 50.039 86.0174 50.0416 86.046 50.0499C86.0747 50.0582 86.1014 50.0721 86.1246 50.0907C86.1479 50.1093 86.1673 50.1323 86.1817 50.1585C86.196 50.1846 86.2051 50.2133 86.2084 50.2429C86.2117 50.2725 86.2091 50.3025 86.2008 50.3311C85.9915 51.0113 85.791 52.2234 86.1441 52.5765C86.3992 52.7687 86.6996 52.8918 87.0161 52.9341C87.4521 53.0343 88.0582 53.1695 87.9317 53.8061C87.7748 54.6083 85.8651 55.4062 85.4858 55.5501C85.4574 55.5579 85.4276 55.5594 85.3986 55.5544Z" fill="#263238"/>
<path d="M83.4672 58.4582C83.0197 58.4843 82.5729 58.395 82.1698 58.1988C81.7666 58.0026 81.4207 57.706 81.1652 57.3376C81.149 57.314 81.1377 57.2874 81.132 57.2593C81.1263 57.2313 81.1263 57.2024 81.1319 57.1743C81.1376 57.1462 81.1489 57.1196 81.1651 57.096C81.1813 57.0724 81.2021 57.0522 81.2262 57.0368C81.2743 57.0052 81.3328 56.994 81.3892 57.0054C81.4455 57.0168 81.4951 57.0501 81.527 57.0978C82.5734 58.6718 85.015 57.7475 85.015 57.7388C85.0688 57.7174 85.1289 57.7182 85.182 57.7411C85.2352 57.764 85.277 57.8071 85.2984 57.8608C85.3198 57.9146 85.319 57.9747 85.2961 58.0278C85.2732 58.081 85.2301 58.1228 85.1764 58.1442C84.6278 58.3423 84.0504 58.4484 83.4672 58.4582Z" fill="#263238"/>
<path d="M79.4647 49.9082C79.4387 49.9124 79.4122 49.9124 79.3863 49.9082C79.3592 49.8981 79.3345 49.8826 79.3135 49.8629C79.2924 49.8431 79.2756 49.8193 79.2638 49.7929C79.252 49.7666 79.2456 49.7381 79.2449 49.7093C79.2443 49.6804 79.2493 49.6517 79.2598 49.6248C79.4857 49.091 79.9023 48.6605 80.4283 48.4171C80.7506 48.2921 81.0949 48.2339 81.4404 48.2459C81.7859 48.2579 82.1254 48.3399 82.4383 48.4869C82.492 48.5082 82.5351 48.5501 82.558 48.6033C82.5809 48.6564 82.5817 48.7165 82.5604 48.7703C82.539 48.824 82.4971 48.8671 82.4439 48.89C82.3908 48.9129 82.3307 48.9137 82.277 48.8923C82.0176 48.7671 81.7356 48.6955 81.4478 48.682C81.1601 48.6686 80.8727 48.7134 80.6027 48.8139C80.1844 49.0138 79.8518 49.3573 79.6653 49.7818C79.6486 49.8207 79.6205 49.8536 79.5846 49.8761C79.5488 49.8987 79.507 49.9099 79.4647 49.9082Z" fill="#263238"/>
<path d="M88.7819 49.1932C88.7485 49.1927 88.7157 49.1851 88.6856 49.1708C88.6555 49.1565 88.6288 49.1359 88.6075 49.1103C88.1715 48.5653 87.7747 48.2994 87.3823 48.3168C87.1927 48.349 87.012 48.4207 86.852 48.5274C86.692 48.6341 86.5563 48.7733 86.4536 48.9359C86.4223 48.9842 86.3734 49.0185 86.3173 49.0315C86.2612 49.0446 86.2022 49.0353 86.1528 49.0057C86.128 48.991 86.1064 48.9714 86.0893 48.9481C86.0723 48.9248 86.0601 48.8983 86.0536 48.8702C86.0471 48.8421 86.0463 48.8129 86.0514 48.7845C86.0565 48.7561 86.0672 48.729 86.083 48.7048C86.2216 48.4824 86.4076 48.2932 86.6276 48.1507C86.8477 48.0083 87.0964 47.9161 87.3561 47.8808C87.9142 47.8503 88.4418 48.1773 88.9519 48.8444C88.9871 48.8901 89.0027 48.9479 88.9953 49.0051C88.988 49.0623 88.9582 49.1142 88.9127 49.1496C88.8751 49.1781 88.8291 49.1935 88.7819 49.1932Z" fill="#263238"/>
<path d="M93.8091 37.6915C91.8994 35.5115 89.8851 35.6423 88.6817 36.1132C87.0511 33.3664 81.6621 31.1864 74.7297 33.8329C66.6288 36.9198 67.5924 45.2168 67.9804 46.7603C68.3685 48.3037 71.0673 52.3542 72.8026 52.546C72.8026 52.546 74.346 51.1944 74.346 49.8472C74.346 48.4999 78.0128 45.7967 81.6752 44.637C83.9816 43.9089 86.5148 42.5703 87.9798 40.8612C87.9526 41.9835 88.2412 43.0908 88.8125 44.0571C89.9723 45.8011 91.7076 46.7603 91.7076 47.3402C91.7076 47.9201 92.6711 50.039 93.4516 50.039C94.232 50.039 94.2233 46.9521 94.4151 45.6005C94.607 44.2489 96.5079 40.7784 93.8091 37.6915Z" fill="#263238"/>
<path d="M72.7807 52.764H72.7546C70.858 52.5504 68.1373 48.3648 67.7449 46.8126C67.7231 46.7167 65.5911 37.0767 74.6337 33.6323C81.3089 31.0861 86.8417 32.8606 88.7732 35.8472C89.7586 35.5158 91.9124 35.1932 93.9703 37.5476C96.2245 40.1244 95.3699 42.954 94.8423 44.65C94.7358 44.9712 94.6499 45.2989 94.5851 45.631C94.5371 45.958 94.5023 46.3984 94.463 46.8606C94.2973 48.9141 94.1316 50.257 93.4035 50.257C92.4443 50.257 91.4503 47.9549 91.4503 47.3402C91.4503 47.157 91.0143 46.7472 90.5783 46.3548C89.8314 45.7122 89.1666 44.98 88.5988 44.1748C88.0746 43.3376 87.7743 42.3797 87.7268 41.3931C86.3403 42.8014 84.1298 44.0702 81.6838 44.8419C77.9866 46.0104 74.5073 48.6482 74.5073 49.8428C74.5073 51.2729 72.9551 52.6463 72.8897 52.7073C72.8596 52.7363 72.8217 52.7559 72.7807 52.764ZM80.777 32.8606C78.7251 32.8855 76.695 33.2844 74.7863 34.0378C66.0968 37.3514 68.146 46.612 68.1678 46.708C68.5515 48.2427 71.1152 52.001 72.711 52.3149C73.0074 52.0359 74.1062 50.9197 74.1062 49.8472C74.1062 48.3342 77.8819 45.6005 81.5879 44.4277C84.1821 43.6124 86.5016 42.2215 87.7922 40.7173C87.822 40.6837 87.8612 40.6598 87.9048 40.6489C87.9484 40.638 87.9943 40.6406 88.0364 40.6563C88.0777 40.6722 88.1132 40.7004 88.1381 40.737C88.163 40.7736 88.1762 40.8169 88.1759 40.8612C88.1484 41.9417 88.4249 43.0082 88.9738 43.9394C89.523 44.7132 90.1659 45.4162 90.8878 46.0322C91.4982 46.5946 91.9037 46.9652 91.9037 47.3402C91.9037 47.9026 92.8455 49.821 93.421 49.821C93.8047 49.821 93.9747 47.7238 94.0488 46.8257C94.0837 46.3548 94.1229 45.9101 94.1709 45.57C94.2377 45.2156 94.328 44.866 94.4412 44.5236C94.9557 42.8145 95.7492 40.229 93.6433 37.8354C91.7075 35.6248 89.7542 35.9344 88.7601 36.3181C88.7116 36.3363 88.6582 36.3367 88.6095 36.3191C88.5608 36.3015 88.5199 36.2671 88.4942 36.2222C87.4696 34.5043 84.6835 32.8606 80.777 32.8606Z" fill="#263238"/>
<path d="M71.1587 47.7282H71.1195C71.0629 47.7176 71.0129 47.6851 70.9802 47.6377C70.9475 47.5903 70.9349 47.532 70.9451 47.4753C71.0715 46.7995 71.5468 46.224 72.4013 45.7052C72.451 45.6769 72.5098 45.6692 72.5651 45.6838C72.6203 45.6985 72.6676 45.7342 72.6968 45.7834C72.7259 45.8325 72.7346 45.8912 72.721 45.9467C72.7073 46.0022 72.6724 46.0501 72.6237 46.0801C71.8869 46.5161 71.477 47.0088 71.3724 47.5582C71.3622 47.607 71.3353 47.6507 71.2963 47.6818C71.2573 47.7128 71.2086 47.7293 71.1587 47.7282Z" fill="white"/>
<path d="M73.9186 45.4392C73.8745 45.4389 73.8314 45.4255 73.7949 45.4007C73.7584 45.3758 73.7301 45.3407 73.7137 45.2997C73.6938 45.2459 73.696 45.1864 73.7196 45.1342C73.7433 45.082 73.7866 45.0412 73.8401 45.0207C75.3534 44.484 76.9001 44.0471 78.4704 43.7127C79.6389 43.4423 80.7464 43.1807 81.6663 42.8886C85.1195 41.7899 87.0553 38.7815 87.0771 38.7553C87.0918 38.7305 87.1114 38.7089 87.1347 38.6919C87.158 38.6748 87.1845 38.6627 87.2126 38.6562C87.2407 38.6496 87.2699 38.6489 87.2983 38.6539C87.3267 38.659 87.3538 38.6698 87.3779 38.6856C87.4264 38.7168 87.4606 38.7661 87.4728 38.8225C87.4851 38.8789 87.4745 38.9378 87.4433 38.9864C86.0677 40.9986 84.0801 42.5137 81.7753 43.3072C80.8423 43.6036 79.7261 43.8653 78.5489 44.1399C76.9987 44.4624 75.471 44.8848 73.9753 45.4043C73.958 45.4184 73.939 45.4302 73.9186 45.4392Z" fill="white"/>
<path d="M70.5092 41.5501C70.4653 41.5504 70.4225 41.5367 70.3871 41.5109C70.3393 41.4789 70.3061 41.4294 70.2946 41.373C70.2832 41.3167 70.2945 41.2581 70.326 41.21C70.762 40.5342 71.9392 40.5822 73.6963 40.6519C75.1212 40.7318 76.5497 40.723 77.9735 40.6258C81.9367 40.3075 85.4771 37.9226 85.5119 37.8964C85.56 37.8649 85.6186 37.8536 85.6749 37.865C85.7313 37.8764 85.7808 37.9097 85.8128 37.9575C85.8292 37.9808 85.8408 38.0072 85.8468 38.0351C85.8528 38.063 85.8532 38.0918 85.8479 38.1198C85.8427 38.1479 85.8318 38.1746 85.816 38.1984C85.8003 38.2221 85.7799 38.2425 85.7561 38.2583C85.6079 38.3586 82.085 40.7348 78.0084 41.0618C76.5672 41.1612 75.1212 41.17 73.6789 41.0879C72.1267 41.0269 71.0062 40.9789 70.6879 41.4542C70.6684 41.4837 70.6419 41.508 70.6107 41.5247C70.5795 41.5415 70.5446 41.5502 70.5092 41.5501Z" fill="white"/>
<path d="M93.9311 43.826C93.9025 43.8249 93.8744 43.8181 93.8483 43.8061C93.8223 43.7941 93.7989 43.7771 93.7795 43.756C93.76 43.735 93.7449 43.7103 93.7351 43.6834C93.7252 43.6565 93.7207 43.6279 93.7218 43.5993C93.7415 43.0603 93.7021 42.5208 93.6041 41.9904C93.5978 41.9623 93.5972 41.9332 93.6024 41.9049C93.6075 41.8766 93.6184 41.8496 93.6343 41.8256C93.6502 41.8015 93.6708 41.781 93.6948 41.7651C93.7188 41.7492 93.7458 41.7384 93.7742 41.7332C93.8025 41.7275 93.8317 41.7275 93.8601 41.7332C93.8884 41.739 93.9154 41.7503 93.9393 41.7665C93.9633 41.7827 93.9837 41.8036 93.9995 41.8278C94.0154 41.852 94.0262 41.8791 94.0314 41.9076C94.1344 42.4712 94.1768 43.0441 94.1578 43.6167C94.1567 43.6454 94.15 43.6735 94.138 43.6995C94.1259 43.7255 94.1089 43.7489 94.0879 43.7684C94.0668 43.7878 94.0421 43.8029 94.0152 43.8128C93.9883 43.8227 93.9598 43.8272 93.9311 43.826Z" fill="white"/>
<path d="M93.5736 41.2928C93.5281 41.2932 93.4837 41.2789 93.4468 41.2523C93.41 41.2256 93.3826 41.1879 93.3686 41.1446C93.0871 40.3688 92.6355 39.6659 92.0471 39.0873C91.4587 38.5086 90.7482 38.069 89.9679 37.8005C89.9122 37.7842 89.8651 37.7469 89.8366 37.6964C89.8081 37.6459 89.8004 37.5862 89.8153 37.5302C89.8233 37.5027 89.8366 37.477 89.8545 37.4547C89.8725 37.4324 89.8946 37.4138 89.9197 37.4001C89.9448 37.3863 89.9724 37.3776 90.0008 37.3745C90.0293 37.3714 90.0581 37.3739 90.0856 37.3819C90.9364 37.6634 91.7116 38.1358 92.3517 38.7631C92.9918 39.3903 93.4799 40.1557 93.7785 41.0007C93.7881 41.0279 93.7922 41.0567 93.7906 41.0855C93.789 41.1143 93.7817 41.1425 93.7692 41.1684C93.7566 41.1944 93.739 41.2176 93.7174 41.2367C93.6958 41.2558 93.6706 41.2704 93.6433 41.2797C93.6211 41.2883 93.5974 41.2927 93.5736 41.2928Z" fill="white"/>
<path d="M79.5519 61.0829C78.9845 61.105 78.4203 60.9883 77.9082 60.7428C76.247 59.8708 73.2953 55.9468 73.1732 55.7637C73.1385 55.7174 73.1237 55.6593 73.1318 55.602C73.14 55.5448 73.1706 55.4931 73.2168 55.4585C73.2631 55.4238 73.3212 55.4089 73.3785 55.417C73.4357 55.4252 73.4873 55.4558 73.522 55.5021C73.5526 55.5413 76.5348 59.5263 78.1131 60.3591C79.6914 61.1919 82.6519 60.0321 82.6824 60.019C82.7093 60.0087 82.738 60.0038 82.7668 60.0046C82.7956 60.0054 82.824 60.0118 82.8503 60.0235C82.8766 60.0353 82.9003 60.0521 82.9202 60.073C82.94 60.0939 82.9555 60.1186 82.9658 60.1455C82.9761 60.1724 82.981 60.2011 82.9802 60.2299C82.9795 60.2587 82.973 60.287 82.9613 60.3134C82.9495 60.3397 82.9327 60.3634 82.9118 60.3832C82.8909 60.4031 82.8663 60.4186 82.8394 60.4289C81.7848 60.8185 80.6753 61.0392 79.5519 61.0829Z" fill="#263238"/>
<path d="M83.8422 60.2589C83.8422 60.6556 83.3539 60.9826 82.7565 60.9826C82.1592 60.9826 81.6709 60.6556 81.6709 60.2589C81.6709 59.8621 82.1549 59.5351 82.7565 59.5351C83.3582 59.5351 83.8422 59.8577 83.8422 60.2589Z" fill="#263238"/>
<path d="M71.6471 50.1131C71.6471 50.1131 68.0675 40.8438 71.6471 35.3153C71.6471 35.3153 66.1142 41.0051 70.9975 51.4168L71.6471 50.1131Z" fill="white"/>
<path d="M74.1281 53.1172C74.4551 55.2972 73.8621 57.1807 72.7983 57.342C71.7344 57.5033 70.6183 55.8683 70.2869 53.6927C69.9556 51.517 70.5572 49.6292 71.6167 49.4678C72.6762 49.3065 73.8185 50.9415 74.1281 53.1172Z" fill="white"/>
<path d="M72.6674 57.56C71.5295 57.56 70.4177 55.9337 70.0863 53.7188C69.9163 52.73 69.9684 51.7158 70.2389 50.7497C70.5136 49.8777 70.9976 49.3327 71.5992 49.2455C72.7939 49.0667 74.0103 50.7453 74.3591 53.0735C74.527 54.0625 74.4749 55.0762 74.2065 56.0427C73.9275 56.9147 73.4479 57.4597 72.8462 57.5469C72.787 57.5556 72.7273 57.5599 72.6674 57.56ZM71.7954 49.6684C71.7563 49.6641 71.7169 49.6641 71.6777 49.6684C71.2417 49.7294 70.8929 50.1698 70.6706 50.8717C70.4212 51.7747 70.375 52.7217 70.5354 53.6447C70.8362 55.659 71.8696 57.2504 72.7982 57.1065C73.2342 57.0455 73.5874 56.6051 73.8098 55.9032C74.057 54.9999 74.1031 54.0533 73.9449 53.1302C73.6354 51.2118 72.6718 49.6771 71.778 49.6771L71.7954 49.6684Z" fill="#263238"/>
<path d="M72.2047 57.2769C73.1477 57.1351 73.6471 55.2578 73.3203 53.0838C72.9934 50.9098 71.9641 49.2623 71.0211 49.404C70.0781 49.5458 69.5787 51.4231 69.9055 53.5972C70.2324 55.7712 71.2618 57.4187 72.2047 57.2769Z" fill="white"/>
<path d="M72.0831 57.5077C71.5861 57.5077 71.0759 57.1284 70.6356 56.4264C70.1358 55.569 69.8126 54.6202 69.6851 53.636C69.3319 51.3034 69.9075 49.3545 70.9931 49.1932C72.0787 49.0318 73.1731 50.7279 73.5437 53.0561C73.7091 54.0347 73.6794 55.0364 73.4565 56.0035C73.2211 56.8755 72.7894 57.4161 72.2401 57.499L72.0831 57.5077ZM71.1239 49.6161H71.0498C70.3435 49.7207 69.7854 51.3601 70.1167 53.5401C70.2329 54.4609 70.5292 55.3498 70.9887 56.1561C71.3724 56.7621 71.791 57.0804 72.1529 57.0281C72.5147 56.9758 72.8287 56.5441 73.0249 55.8509C73.2338 54.9423 73.2605 54.0013 73.1033 53.0823C72.7851 51.02 71.8259 49.6161 71.1239 49.6161Z" fill="#263238"/>
<path d="M107.12 68.5559L112.147 108.297L102.106 108.101L107.12 68.5559Z" fill="#D2E558"/>
<path d="M112.147 108.515L102.119 108.319C102.089 108.319 102.058 108.312 102.031 108.299C102.003 108.286 101.978 108.268 101.958 108.245C101.938 108.222 101.924 108.194 101.916 108.165C101.908 108.136 101.906 108.105 101.91 108.075L106.92 68.5298C106.926 68.4766 106.952 68.4276 106.992 68.3923C107.032 68.3569 107.084 68.3375 107.138 68.3379C107.19 68.3386 107.241 68.3584 107.28 68.3937C107.32 68.429 107.345 68.4773 107.351 68.5298L112.378 108.267C112.383 108.298 112.381 108.33 112.372 108.36C112.363 108.39 112.347 108.418 112.326 108.441C112.304 108.467 112.276 108.486 112.245 108.499C112.214 108.512 112.181 108.518 112.147 108.515ZM102.355 107.887L111.899 108.075L107.103 70.2912L102.355 107.887Z" fill="#263238"/>
<path opacity="0.3" d="M109.858 90.2295L104.631 93.3687L104.718 87.4958L102.106 108.101L112.147 108.297L111.323 101.805L106.941 101.949L110.831 97.9074L110.8 97.6415L105.455 99.4727L110.29 93.6172L109.858 90.2295Z" fill="black"/>
<path d="M71.1981 56.8363C71.1981 56.8363 72.6805 56.3174 73.0031 56.8886C73.3258 57.4597 73.7007 59.9406 73.692 60.2937C73.6833 60.6469 73.5612 60.9695 72.8898 60.7297C72.2183 60.4899 71.1458 58.3056 71.1458 58.3056L71.1981 56.8363Z" fill="white"/>
<path d="M73.2865 61.048C73.1252 61.0436 72.9659 61.0111 72.8157 60.9521C72.1006 60.6861 71.1414 58.7982 70.9583 58.4189C70.9517 58.3858 70.9517 58.3518 70.9583 58.3187L71.0019 56.8537C71.0028 56.8096 71.017 56.7669 71.0427 56.7311C71.0684 56.6953 71.1043 56.6681 71.1458 56.6531C71.4248 56.5572 72.82 56.1081 73.2124 56.8057C73.5569 57.4118 73.9449 59.958 73.9318 60.3242C73.938 60.442 73.9168 60.5596 73.8699 60.6677C73.823 60.7759 73.7517 60.8718 73.6615 60.9477C73.5501 61.0196 73.419 61.0547 73.2865 61.048ZM71.3725 58.275C71.778 59.0904 72.5453 60.3853 72.9639 60.5422C73.2647 60.6512 73.3694 60.6033 73.3999 60.5858C73.4304 60.5684 73.4784 60.4594 73.4827 60.3112C73.4827 60.0103 73.1209 57.5556 72.82 57.0194C72.6761 56.7578 71.948 56.858 71.4205 57.0194L71.3725 58.275Z" fill="#263238"/>
<path d="M64.7104 64.7017C64.7104 64.7017 66.0838 55.8727 66.1143 54.9135C66.1448 53.9543 67.4223 53.1695 68.0327 52.934C68.6431 52.6986 72.1311 52.812 72.5017 52.825C72.8723 52.8381 74.3634 52.7596 74.3503 53.261C74.3373 53.7624 74.2065 53.9761 72.9595 54.1767C71.7125 54.3772 68.7303 54.5342 68.7303 54.5342L67.9499 55.7114L71.6515 56.4177C71.6515 56.4177 72.5235 56.8014 72.3665 57.3987C72.2096 57.996 71.7779 60.6164 71.7692 60.9739C71.7605 61.3314 71.3768 61.5625 70.4917 62.138C69.9634 62.4797 69.3693 62.707 68.7477 62.8051C68.7477 62.8051 68.8175 64.6058 68.3117 64.8281L67.0517 65.3906L66.8773 75.6932L61.1875 75.048L64.7104 64.7017Z" fill="white"/>
<path d="M66.873 75.872H66.8468L61.1788 75.2267C61.1462 75.223 61.1148 75.212 61.0869 75.1947C61.059 75.1773 61.0353 75.154 61.0175 75.1264C61.0036 75.0972 60.9963 75.0651 60.9963 75.0327C60.9963 75.0003 61.0036 74.9682 61.0175 74.939L64.5404 64.6319C64.6102 64.1959 65.9094 55.8029 65.9356 54.8917C65.9661 53.793 67.3657 52.934 67.9979 52.7117C68.6301 52.4893 71.3812 52.5547 72.5454 52.5896H72.7416C73.4653 52.5896 74.1934 52.6114 74.4856 52.9079C74.527 52.9497 74.5596 52.9994 74.5813 53.0541C74.6031 53.1088 74.6135 53.1673 74.612 53.2262C74.612 53.915 74.2545 54.1548 73.038 54.3554C71.9132 54.5385 69.4541 54.678 68.896 54.7086L68.3598 55.5195L71.7388 56.1648H71.7867C71.826 56.1648 72.807 56.6313 72.6238 57.3943C72.4712 58.0352 72.0396 60.612 72.0309 60.9303C72.0309 61.3663 71.6254 61.641 70.7708 62.1947L70.6575 62.2688C70.1525 62.5912 69.5923 62.8173 69.005 62.9359C69.005 63.5288 68.9614 64.7409 68.4382 64.9764L67.309 65.4821L67.1346 75.6453C67.1337 75.6758 67.1267 75.7058 67.114 75.7335C67.1013 75.7612 67.0831 75.7861 67.0605 75.8066C67.0366 75.8316 67.0072 75.8505 66.9746 75.8619C66.942 75.8732 66.9072 75.8767 66.873 75.872ZM61.484 74.843L66.6594 75.436L66.8294 65.3731C66.8309 65.3321 66.844 65.2923 66.8671 65.2583C66.8903 65.2244 66.9225 65.1977 66.9602 65.1813L68.2159 64.6188C68.4339 64.5186 68.5516 63.5812 68.5211 62.8007C68.5185 62.7457 68.5368 62.6917 68.5724 62.6496C68.608 62.6076 68.6582 62.5806 68.7129 62.574C69.3049 62.4824 69.871 62.267 70.3741 61.9418L70.4918 61.8677C71.2374 61.3794 71.5426 61.1744 71.5513 60.9564C71.5513 60.5553 72.0265 57.9044 72.1573 57.3333C72.2445 56.967 71.7213 56.6706 71.5862 56.6139L67.9107 55.9119C67.8752 55.9049 67.8419 55.8893 67.8138 55.8665C67.7857 55.8437 67.7636 55.8144 67.7494 55.7811C67.7333 55.7494 67.7249 55.7143 67.7249 55.6787C67.7249 55.6431 67.7333 55.608 67.7494 55.5762L68.5254 54.399C68.5455 54.371 68.5716 54.3479 68.6018 54.3313C68.632 54.3147 68.6655 54.3051 68.6998 54.3031C68.726 54.3031 71.6821 54.1505 72.9029 53.9499C74.1237 53.7494 74.1019 53.5619 74.1106 53.2392C74.0714 53.1738 73.8359 53.0518 72.7067 53.0518H72.4712C70.7272 52.9994 68.5167 52.9951 68.0851 53.1477C67.4965 53.357 66.3411 54.1156 66.3106 54.9309C66.28 55.8901 64.9633 64.3834 64.9066 64.7453C64.9066 64.7453 64.9066 64.7714 64.9066 64.7802L61.484 74.843Z" fill="#263238"/>
<path d="M72.07 58.0963H72.0307L67.5399 57.2897C67.4821 57.2793 67.4308 57.2463 67.3973 57.1981C67.3638 57.1498 67.3508 57.0902 67.3612 57.0324C67.3716 56.9746 67.4045 56.9233 67.4528 56.8898C67.501 56.8562 67.5606 56.8433 67.6184 56.8537L72.1092 57.6646C72.167 57.6698 72.2204 57.6978 72.2576 57.7424C72.2948 57.7869 72.3128 57.8444 72.3076 57.9022C72.3024 57.9601 72.2744 58.0134 72.2299 58.0506C72.1853 58.0878 72.1278 58.1058 72.07 58.1006V58.0963Z" fill="#263238"/>
<path d="M71.5599 60.1106H71.5119L67.8147 59.2124C67.7569 59.1991 67.7067 59.1634 67.6752 59.1131C67.6437 59.0629 67.6335 59.0021 67.6468 58.9443C67.6601 58.8865 67.6958 58.8363 67.7461 58.8048C67.7964 58.7734 67.8571 58.7631 67.9149 58.7764L71.6166 59.6746C71.6445 59.6807 71.6709 59.6924 71.6941 59.709C71.7174 59.7257 71.7369 59.7469 71.7516 59.7715C71.7664 59.796 71.7759 59.8232 71.7796 59.8516C71.7834 59.8799 71.7813 59.9087 71.7735 59.9362C71.7643 59.9858 71.7377 60.0306 71.6986 60.0625C71.6595 60.0944 71.6104 60.1115 71.5599 60.1106Z" fill="#263238"/>
<path d="M68.739 63.0013C68.7024 63.0021 68.6662 62.9932 68.634 62.9756C68.6019 62.958 68.575 62.9323 68.5559 62.901C68.3989 62.6568 68.0458 62.0595 68.1635 61.7325C68.182 61.6805 68.2126 61.6336 68.2528 61.5957C68.2929 61.5578 68.3415 61.53 68.3946 61.5145C68.739 61.4099 69.5413 61.205 69.5413 61.205L69.6503 61.641C69.6503 61.641 68.9352 61.8241 68.5733 61.9287C68.6457 62.1969 68.7637 62.4505 68.9221 62.6786C68.9533 62.7272 68.9639 62.7862 68.9516 62.8426C68.9394 62.899 68.9052 62.9482 68.8567 62.9795C68.8199 62.9964 68.7794 63.0039 68.739 63.0013Z" fill="#263238"/>
<path d="M61.6977 69.7113L67.8453 72.0308C67.8453 72.0308 63.5638 98.9059 62.5348 101.016C61.5059 103.126 59.0991 105.577 55.9948 105.873C52.8905 106.17 50.6451 102.821 50.5535 99.3026C50.462 95.7841 61.6977 69.7113 61.6977 69.7113Z" fill="#D2E558"/>
<path d="M55.598 106.109C54.5256 106.098 53.4954 105.689 52.7073 104.962C51.2947 103.706 50.3791 101.544 50.3224 99.2939C50.2265 95.7841 61.0393 70.6749 61.4971 69.6067C61.5201 69.5555 61.5619 69.5152 61.6139 69.4941C61.6659 69.4729 61.724 69.4727 61.7761 69.4933L67.9237 71.8085C67.9709 71.8252 68.0107 71.8579 68.0361 71.9009C68.0616 71.9439 68.0712 71.9945 68.0633 72.0439C67.8889 73.1426 63.7643 98.98 62.7266 101.09C61.6192 103.357 59.1078 105.777 55.9991 106.074C55.8683 106.104 55.7332 106.109 55.598 106.109ZM61.8154 69.9904C60.7951 72.3709 50.6712 96.0414 50.7584 99.2983C50.8107 101.413 51.6697 103.458 52.9995 104.635C53.393 105.004 53.8602 105.286 54.3704 105.462C54.8807 105.638 55.4224 105.704 55.9599 105.655C58.8985 105.376 61.2791 103.074 62.3386 100.92C63.3021 98.9538 67.2305 74.4986 67.6055 72.1704L61.8154 69.9904Z" fill="#263238"/>
<path opacity="0.3" d="M56.6096 92.2133C55.1099 92.9781 53.5441 93.6056 51.9313 94.0881C51.3776 95.6969 50.9547 97.0616 50.728 98.0383L53.6361 97.672C55.7081 97.4333 57.7522 96.9952 59.7401 96.364C59.7401 96.364 54.9441 99.3332 50.6669 99.8302H50.5667C50.8501 103.135 53.0126 106.17 55.9774 105.886C59.0948 105.59 61.4972 103.135 62.5174 101.029C63.0232 99.9915 64.3137 92.9894 65.4953 86.1311C62.7563 88.4663 59.7778 90.5051 56.6096 92.2133Z" fill="black"/>
<path d="M122.406 23.552V22.3574C122.406 22.1885 122.339 22.0266 122.22 21.9073C122.101 21.7879 121.939 21.7208 121.77 21.7208H120.85C120.71 21.1189 120.471 20.5443 120.143 20.0204L120.793 19.3664C120.912 19.2464 120.979 19.0842 120.979 18.9152C120.979 18.7461 120.912 18.5839 120.793 18.4639L119.952 17.6224C119.832 17.5034 119.669 17.4366 119.5 17.4366C119.331 17.4366 119.169 17.5034 119.049 17.6224L118.395 18.2721C117.871 17.9442 117.297 17.7056 116.695 17.5657V16.6458C116.695 16.477 116.628 16.315 116.508 16.1957C116.389 16.0763 116.227 16.0092 116.058 16.0092H114.864C114.695 16.0092 114.533 16.0763 114.413 16.1957C114.294 16.315 114.227 16.477 114.227 16.6458V17.5657C113.625 17.7056 113.05 17.9442 112.527 18.2721L111.873 17.6224C111.753 17.5034 111.59 17.4366 111.421 17.4366C111.252 17.4366 111.09 17.5034 110.97 17.6224L110.129 18.4639C110.01 18.5839 109.943 18.7461 109.943 18.9152C109.943 19.0842 110.01 19.2464 110.129 19.3664L110.778 20.0204C110.45 20.5436 110.213 21.1185 110.076 21.7208H109.152C108.983 21.7208 108.821 21.7879 108.702 21.9073C108.582 22.0266 108.515 22.1885 108.515 22.3574V23.552C108.515 23.7208 108.582 23.8828 108.702 24.0021C108.821 24.1215 108.983 24.1886 109.152 24.1886H110.076C110.213 24.7909 110.45 25.3658 110.778 25.889L110.129 26.543C110.01 26.663 109.943 26.8252 109.943 26.9942C109.943 27.1633 110.01 27.3255 110.129 27.4455L110.97 28.287C111.09 28.406 111.252 28.4728 111.421 28.4728C111.59 28.4728 111.753 28.406 111.873 28.287L112.527 27.6373C113.053 27.9699 113.633 28.2103 114.24 28.348V29.2723C114.24 29.4412 114.307 29.6031 114.426 29.7225C114.546 29.8418 114.708 29.9089 114.877 29.9089H116.071C116.24 29.9089 116.402 29.8418 116.521 29.7225C116.641 29.6031 116.708 29.4412 116.708 29.2723V28.348C117.31 28.2116 117.885 27.9743 118.408 27.6461L119.062 28.2957C119.182 28.4147 119.344 28.4815 119.513 28.4815C119.683 28.4815 119.845 28.4147 119.965 28.2957L120.78 27.476C120.899 27.356 120.966 27.1938 120.966 27.0248C120.966 26.8557 120.899 26.6935 120.78 26.5735L120.13 25.9195C120.458 25.3956 120.697 24.821 120.837 24.2191H121.757C121.844 24.221 121.931 24.2049 122.012 24.1718C122.092 24.1387 122.166 24.0894 122.227 24.0268C122.287 23.9642 122.335 23.8898 122.366 23.8081C122.397 23.7264 122.411 23.6393 122.406 23.552ZM115.74 25.671C115.179 25.7309 114.612 25.6153 114.119 25.34C113.627 25.0648 113.231 24.6435 112.988 24.1341C112.744 23.6247 112.665 23.0524 112.76 22.4959C112.855 21.9395 113.121 21.4263 113.52 21.0271C113.919 20.6279 114.433 20.3623 114.989 20.2669C115.545 20.1715 116.118 20.2511 116.627 20.4945C117.137 20.738 117.558 21.1334 117.833 21.6264C118.108 22.1193 118.224 22.6854 118.164 23.2468C118.1 23.8691 117.824 24.4506 117.383 24.8941C116.942 25.3377 116.362 25.6165 115.74 25.6841V25.671Z" fill="#263238"/>
<path d="M10.7904 75.6366V74.7384C10.7904 74.61 10.7394 74.4869 10.6486 74.3962C10.5578 74.3054 10.4347 74.2544 10.3064 74.2544H9.60007C9.4951 73.8006 9.31533 73.3674 9.06815 72.9726L9.56083 72.4843C9.60565 72.4397 9.64122 72.3867 9.66549 72.3283C9.68976 72.27 9.70226 72.2074 9.70226 72.1442C9.70226 72.081 9.68976 72.0184 9.66549 71.96C9.64122 71.9017 9.60565 71.8487 9.56083 71.8041L8.92427 71.1676C8.8797 71.1227 8.82671 71.0872 8.76835 71.0629C8.70998 71.0386 8.6474 71.0261 8.58419 71.0261C8.52098 71.0261 8.4584 71.0386 8.40003 71.0629C8.34167 71.0872 8.28868 71.1227 8.24411 71.1676L7.75143 71.6559C7.35716 71.4086 6.9237 71.2302 6.46959 71.1283V70.4307C6.46959 70.3035 6.41906 70.1815 6.32912 70.0916C6.23918 70.0016 6.11719 69.9511 5.98999 69.9511H5.10491C4.97731 69.9511 4.85486 70.0015 4.76423 70.0913C4.67359 70.1811 4.6221 70.3031 4.62095 70.4307V71.1283C4.16684 71.2302 3.73337 71.4086 3.33911 71.6559L2.84643 71.1676C2.80186 71.1227 2.74887 71.0872 2.69051 71.0629C2.63214 71.0386 2.56956 71.0261 2.50635 71.0261C2.44314 71.0261 2.38055 71.0386 2.32219 71.0629C2.26383 71.0872 2.21084 71.1227 2.16627 71.1676L1.53407 71.8041C1.48872 71.8484 1.45268 71.9013 1.42807 71.9597C1.40347 72.0181 1.39079 72.0808 1.39079 72.1442C1.39079 72.2076 1.40347 72.2703 1.42807 72.3287C1.45268 72.3871 1.48872 72.44 1.53407 72.4843L2.02239 72.9726C1.7752 73.3674 1.59544 73.8006 1.49047 74.2544H0.797226C0.669629 74.2556 0.547651 74.3071 0.457832 74.3977C0.368013 74.4883 0.317622 74.6108 0.317627 74.7384V75.6366C0.317627 75.7638 0.368156 75.8857 0.458098 75.9757C0.548041 76.0656 0.670029 76.1162 0.797226 76.1162H1.49047C1.59386 76.5705 1.77373 77.0039 2.02239 77.398L1.53407 77.8907C1.48872 77.9349 1.45268 77.9878 1.42807 78.0462C1.40347 78.1046 1.39079 78.1674 1.39079 78.2308C1.39079 78.2941 1.40347 78.3569 1.42807 78.4153C1.45268 78.4737 1.48872 78.5266 1.53407 78.5708L2.18807 79.2074C2.23264 79.2522 2.28563 79.2878 2.34399 79.3121C2.40235 79.3363 2.46494 79.3488 2.52815 79.3488C2.59136 79.3488 2.65394 79.3363 2.7123 79.3121C2.77067 79.2878 2.82366 79.2522 2.86823 79.2074L3.36091 78.7147C3.75496 78.9634 4.18841 79.1432 4.64275 79.2466V79.9399C4.64275 80.0682 4.69374 80.1913 4.7845 80.2821C4.87526 80.3729 4.99835 80.4238 5.12671 80.4238H6.02487C6.15247 80.4227 6.27445 80.3712 6.36426 80.2806C6.45408 80.1899 6.50448 80.0675 6.50447 79.9399V79.2466C6.9588 79.1432 7.39226 78.9634 7.78631 78.7147L8.27899 79.2074C8.32356 79.2522 8.37655 79.2878 8.43491 79.3121C8.49328 79.3363 8.55586 79.3488 8.61907 79.3488C8.68228 79.3488 8.74486 79.3363 8.80323 79.3121C8.86159 79.2878 8.91458 79.2522 8.95915 79.2074L9.59571 78.5708C9.64053 78.5263 9.6761 78.4733 9.70037 78.4149C9.72464 78.3565 9.73713 78.294 9.73713 78.2308C9.73713 78.1675 9.72464 78.105 9.70037 78.0466C9.6761 77.9882 9.64053 77.9352 9.59571 77.8907L9.10303 77.398C9.35169 77.0039 9.53156 76.5705 9.63495 76.1162H10.3282C10.452 76.1106 10.5689 76.0577 10.6549 75.9685C10.7409 75.8793 10.7894 75.7605 10.7904 75.6366ZM5.76327 77.2323C5.34044 77.276 4.91446 77.1877 4.54386 76.9795C4.17326 76.7713 3.87622 76.4534 3.69356 76.0696C3.51091 75.6858 3.45159 75.2548 3.52376 74.8359C3.59593 74.417 3.79606 74.0307 4.09663 73.7301C4.39721 73.4295 4.78348 73.2294 5.20239 73.1572C5.6213 73.0851 6.05227 73.1444 6.43611 73.3271C6.81994 73.5097 7.13779 73.8067 7.34599 74.1773C7.55418 74.5479 7.64251 74.9739 7.59883 75.3968C7.55025 75.867 7.34125 76.3062 7.00697 76.6405C6.67269 76.9747 6.23351 77.1837 5.76327 77.2323Z" fill="#263238"/>
<path d="M144.463 63.664V62.7658C144.463 62.6375 144.412 62.5144 144.322 62.4236C144.231 62.3329 144.108 62.2819 143.979 62.2819H143.286C143.183 61.8275 143.003 61.3941 142.754 61L143.247 60.5117C143.292 60.4672 143.327 60.4142 143.352 60.3558C143.376 60.2974 143.388 60.2348 143.388 60.1716C143.388 60.1084 143.376 60.0458 143.352 59.9875C143.327 59.9291 143.292 59.8761 143.247 59.8316L142.61 59.195C142.566 59.1502 142.513 59.1146 142.455 59.0903C142.396 59.0661 142.334 59.0536 142.27 59.0536C142.207 59.0536 142.145 59.0661 142.086 59.0903C142.028 59.1146 141.975 59.1502 141.93 59.195L141.438 59.6833C141.043 59.4364 140.61 59.2567 140.156 59.1514V58.432C140.156 58.369 140.143 58.3067 140.119 58.2485C140.095 58.1903 140.06 58.1374 140.015 58.0929C139.971 58.0483 139.918 58.013 139.86 57.9889C139.802 57.9648 139.739 57.9524 139.676 57.9524H138.774C138.646 57.9524 138.524 58.0029 138.435 58.0929C138.345 58.1828 138.294 58.3048 138.294 58.432V59.1252C137.84 59.2305 137.407 59.4103 137.012 59.6572L136.52 59.1688C136.475 59.124 136.422 59.0884 136.364 59.0642C136.305 59.0399 136.243 59.0274 136.179 59.0274C136.116 59.0274 136.054 59.0399 135.995 59.0642C135.937 59.0884 135.884 59.124 135.839 59.1688L135.207 59.8054C135.162 59.8497 135.126 59.9026 135.101 59.961C135.077 60.0194 135.064 60.0821 135.064 60.1455C135.064 60.2089 135.077 60.2716 135.101 60.33C135.126 60.3884 135.162 60.4413 135.207 60.4856L135.695 60.9739C135.447 61.3679 135.267 61.8014 135.164 62.2557H134.47C134.343 62.2569 134.221 62.3084 134.131 62.399C134.041 62.4896 133.991 62.6121 133.991 62.7397V63.664C133.991 63.7912 134.041 63.9132 134.131 64.0031C134.221 64.0931 134.343 64.1436 134.47 64.1436H135.168C135.271 64.5979 135.451 65.0314 135.7 65.4254L135.212 65.9181C135.166 65.9624 135.13 66.0153 135.106 66.0737C135.081 66.1321 135.068 66.1948 135.068 66.2582C135.068 66.3216 135.081 66.3843 135.106 66.4427C135.13 66.5011 135.166 66.554 135.212 66.5983L135.844 67.2348C135.888 67.2797 135.941 67.3152 136 67.3395C136.058 67.3638 136.121 67.3763 136.184 67.3763C136.247 67.3763 136.31 67.3638 136.368 67.3395C136.426 67.3152 136.479 67.2797 136.524 67.2348L137.017 66.7422C137.411 66.9908 137.844 67.1707 138.298 67.2741V67.9673C138.298 68.0949 138.349 68.2174 138.439 68.308C138.528 68.3986 138.65 68.4501 138.778 68.4513H139.681C139.808 68.4501 139.93 68.3986 140.02 68.308C140.11 68.2174 140.16 68.0949 140.16 67.9673V67.2741C140.614 67.1707 141.048 66.9908 141.442 66.7422L141.935 67.2348C141.979 67.2797 142.032 67.3152 142.091 67.3395C142.149 67.3638 142.212 67.3763 142.275 67.3763C142.338 67.3763 142.401 67.3638 142.459 67.3395C142.517 67.3152 142.57 67.2797 142.615 67.2348L143.251 66.5983C143.296 66.5537 143.332 66.5007 143.356 66.4424C143.38 66.384 143.393 66.3214 143.393 66.2582C143.393 66.195 143.38 66.1324 143.356 66.074C143.332 66.0157 143.296 65.9627 143.251 65.9181L142.754 65.408C143.003 65.014 143.183 64.5805 143.286 64.1262H143.979C144.104 64.1263 144.224 64.0783 144.314 63.9922C144.404 63.9061 144.458 63.7885 144.463 63.664ZM139.436 65.2598C139.014 65.3034 138.588 65.2151 138.217 65.0069C137.846 64.7987 137.549 64.4809 137.367 64.097C137.184 63.7132 137.125 63.2822 137.197 62.8633C137.269 62.4444 137.469 62.0581 137.77 61.7576C138.07 61.457 138.457 61.2569 138.875 61.1847C139.294 61.1125 139.725 61.1718 140.109 61.3545C140.493 61.5372 140.811 61.8342 141.019 62.2048C141.227 62.5754 141.316 63.0014 141.272 63.4242C141.221 63.8929 141.012 64.33 140.678 64.6626C140.343 64.9951 139.905 65.2028 139.436 65.251V65.2598Z" fill="#263238"/>
<path d="M70.9846 5.15281V4.69064C70.9846 4.65821 70.9782 4.6261 70.9656 4.59619C70.9531 4.56628 70.9347 4.53917 70.9116 4.51644C70.8884 4.49371 70.861 4.47581 70.8309 4.4638C70.8008 4.45179 70.7685 4.44591 70.7361 4.44648H70.3829C70.3282 4.21344 70.2354 3.99101 70.1083 3.78812L70.3611 3.5396C70.4069 3.49311 70.4326 3.43047 70.4326 3.3652C70.4326 3.29994 70.4069 3.2373 70.3611 3.19081L70.0341 2.86381C69.9884 2.81828 69.9265 2.79272 69.8619 2.79272C69.7974 2.79272 69.7355 2.81828 69.6897 2.86381L69.4368 3.11668C69.2339 2.98959 69.0115 2.89679 68.7785 2.842V2.48885C68.7785 2.42368 68.7529 2.36112 68.7072 2.31464C68.6616 2.26815 68.5995 2.24147 68.5343 2.24033H68.0721C68.007 2.24147 67.9449 2.26815 67.8992 2.31464C67.8536 2.36112 67.828 2.42368 67.828 2.48885V2.842C67.5948 2.89626 67.3722 2.98909 67.1696 3.11668L66.9167 2.86381C66.8703 2.81801 66.8076 2.79233 66.7423 2.79233C66.6771 2.79233 66.6144 2.81801 66.5679 2.86381L66.2453 3.19081C66.1995 3.2373 66.1738 3.29994 66.1738 3.3652C66.1738 3.43047 66.1995 3.49311 66.2453 3.5396L66.4938 3.78812C66.3683 3.99129 66.2769 4.21371 66.2235 4.44648H65.866C65.8012 4.44648 65.7391 4.47221 65.6933 4.518C65.6475 4.56378 65.6218 4.62589 65.6218 4.69064V5.15281C65.6218 5.21797 65.6474 5.28053 65.6931 5.32701C65.7387 5.37349 65.8008 5.40018 65.866 5.40133H66.2235C66.2762 5.63296 66.3676 5.85406 66.4938 6.05533L66.2453 6.3082C66.1995 6.3547 66.1738 6.41734 66.1738 6.4826C66.1738 6.54787 66.1995 6.61051 66.2453 6.657L66.5679 6.984C66.6144 7.0298 66.6771 7.05547 66.7423 7.05547C66.8076 7.05547 66.8703 7.0298 66.9167 6.984L67.1696 6.73112C67.3715 6.85918 67.5944 6.95069 67.828 7.00144V7.35896C67.828 7.42372 67.8537 7.48582 67.8995 7.53161C67.9453 7.5774 68.0074 7.60312 68.0721 7.60312H68.5343C68.5991 7.60312 68.6612 7.5774 68.7069 7.53161C68.7527 7.48582 68.7785 7.42372 68.7785 7.35896V6.984C69.0118 6.93239 69.2345 6.84095 69.4368 6.71368L69.6897 6.96656C69.7355 7.01209 69.7974 7.03765 69.8619 7.03765C69.9265 7.03765 69.9884 7.01209 70.0341 6.96656L70.3611 6.63956C70.4069 6.59307 70.4326 6.53043 70.4326 6.46516C70.4326 6.3999 70.4069 6.33726 70.3611 6.29077L70.1083 6.03788C70.2358 5.83683 70.3287 5.61574 70.3829 5.38388H70.7361C70.7991 5.38404 70.8598 5.36027 70.9059 5.31737C70.9521 5.27447 70.9802 5.21565 70.9846 5.15281ZM68.4122 5.97248C68.1952 5.99941 67.9751 5.95821 67.7825 5.85458C67.5898 5.75096 67.4342 5.59003 67.337 5.39406C67.2399 5.19809 67.206 4.97677 67.2401 4.76071C67.2743 4.54466 67.3747 4.34456 67.5276 4.1881C67.6804 4.03163 67.8781 3.92653 68.0933 3.88734C68.3085 3.84815 68.5305 3.87681 68.7287 3.96935C68.9269 4.06189 69.0915 4.21375 69.1996 4.40389C69.3077 4.59404 69.354 4.81308 69.3322 5.03072C69.3075 5.26845 69.2032 5.49087 69.0362 5.66184C68.8692 5.83281 68.6493 5.94228 68.4122 5.97248Z" fill="#263238"/>
<path d="M14.8974 35.6815H11.9326V38.6463H14.8974V35.6815ZM12.5343 36.2832H14.2783V38.049H12.5343V36.2832Z" fill="#263238"/>
<path d="M134.658 93.6216H131.68V96.5864H134.645L134.658 93.6216ZM132.291 94.2233H134.056V95.989H132.291V94.2233Z" fill="#263238"/>
<path d="M90.1772 8.69312H87.208V11.6579H90.1728L90.1772 8.69312ZM87.8097 9.29044H89.5755V11.0344H87.8097V9.29044Z" fill="#263238"/>
<path d="M13.1535 83.0268H10.1887V85.9959H13.1535V83.0268ZM10.786 83.6284H12.53V85.3725H10.786V83.6284Z" fill="#263238"/>
<path opacity="0.9" d="M99.7212 29.22C99.3683 29.2191 99.0231 29.323 98.7293 29.5184C98.4355 29.7138 98.2062 29.992 98.0706 30.3178C97.935 30.6436 97.899 31.0023 97.9673 31.3485C98.0356 31.6947 98.2051 32.0128 98.4544 32.2626C98.7036 32.5125 99.0213 32.6827 99.3673 32.7519C99.7134 32.8211 100.072 32.786 100.398 32.6512C100.724 32.5163 101.003 32.2878 101.199 31.9944C101.395 31.7011 101.5 31.3561 101.5 31.0032C101.5 30.5311 101.313 30.0781 100.979 29.7438C100.646 29.4095 100.193 29.2212 99.7212 29.22ZM99.7212 32.0714C99.5099 32.0714 99.3034 32.0088 99.1277 31.8914C98.9521 31.774 98.8152 31.6072 98.7343 31.412C98.6535 31.2168 98.6323 31.0021 98.6735 30.7948C98.7147 30.5876 98.8165 30.3973 98.9659 30.2479C99.1153 30.0985 99.3056 29.9968 99.5128 29.9556C99.72 29.9144 99.9348 29.9355 100.13 30.0164C100.325 30.0972 100.492 30.2341 100.609 30.4098C100.727 30.5854 100.789 30.792 100.789 31.0032C100.785 31.2835 100.67 31.5508 100.47 31.7473C100.271 31.9439 100.002 32.054 99.7212 32.054V32.0714Z" fill="#263238"/>
<path d="M68.0239 37.5825L64.0301 32.054C64.7626 32.0517 65.4643 31.7597 65.9822 31.2418C66.5001 30.7239 66.7921 30.0222 66.7944 29.2898V14.239C66.7909 13.507 66.4986 12.8059 65.981 12.2882C65.4633 11.7706 64.7622 11.4782 64.0301 11.4748H29.3245C28.5921 11.4771 27.8904 11.7691 27.3725 12.287C26.8546 12.8049 26.5626 13.5066 26.5603 14.239V29.2898C26.5615 30.0225 26.8531 30.7249 27.3712 31.2431C27.8893 31.7612 28.5918 32.0528 29.3245 32.054H59.3344L68.0239 37.5825Z" fill="#263238"/>
<path d="M38.0926 21.1496C38.0926 20.815 37.9934 20.488 37.8075 20.2098C37.6216 19.9316 37.3574 19.7148 37.0483 19.5867C36.7392 19.4587 36.399 19.4252 36.0709 19.4905C35.7427 19.5557 35.4413 19.7168 35.2047 19.9534C34.9681 20.19 34.807 20.4914 34.7417 20.8196C34.6765 21.1477 34.71 21.4879 34.838 21.797C34.966 22.1061 35.1829 22.3703 35.4611 22.5562C35.7393 22.7421 36.0663 22.8413 36.4009 22.8413C36.6231 22.8413 36.843 22.7975 37.0483 22.7125C37.2535 22.6275 37.44 22.5029 37.5971 22.3458C37.7542 22.1887 37.8788 22.0022 37.9638 21.797C38.0488 21.5918 38.0926 21.3718 38.0926 21.1496Z" fill="#D2E558"/>
<path d="M48.0726 21.1496C48.0726 20.8149 47.9732 20.4876 47.7872 20.2093C47.6011 19.931 47.3366 19.7142 47.0273 19.5863C46.7179 19.4584 46.3775 19.4251 46.0493 19.4908C45.721 19.5564 45.4196 19.718 45.1831 19.955C44.9467 20.192 44.786 20.4938 44.7212 20.8223C44.6564 21.1507 44.6905 21.491 44.8192 21.8C44.9479 22.1091 45.1654 22.373 45.4442 22.5583C45.723 22.7437 46.0505 22.8422 46.3852 22.8413C46.6072 22.8413 46.827 22.7975 47.032 22.7124C47.237 22.6274 47.4232 22.5027 47.5799 22.3456C47.7366 22.1884 47.8608 22.0019 47.9454 21.7967C48.0299 21.5914 48.0731 21.3716 48.0726 21.1496Z" fill="#D2E558"/>
<path d="M58.0569 21.1496C58.0569 20.815 57.9577 20.488 57.7718 20.2098C57.586 19.9316 57.3218 19.7148 57.0126 19.5867C56.7035 19.4587 56.3634 19.4252 56.0352 19.4905C55.7071 19.5557 55.4056 19.7168 55.1691 19.9534C54.9325 20.19 54.7714 20.4914 54.7061 20.8196C54.6408 21.1477 54.6743 21.4879 54.8024 21.797C54.9304 22.1061 55.1472 22.3703 55.4254 22.5562C55.7036 22.7421 56.0307 22.8413 56.3653 22.8413C56.5874 22.8413 56.8074 22.7975 57.0126 22.7125C57.2179 22.6275 57.4044 22.5029 57.5615 22.3458C57.7185 22.1887 57.8432 22.0022 57.9282 21.797C58.0132 21.5918 58.0569 21.3718 58.0569 21.1496Z" fill="#D2E558"/>
</svg>
